<svg width="3839" height="1701" xmlns="http://www.w3.org/2000/svg" xmlns:xlink="http://www.w3.org/1999/xlink" xml:space="preserve" overflow="hidden"><g transform="translate(-120 -425)"><path d="M974.5 1519.06 1209.1 1519.06 1209.1 1525.94 974.5 1525.94ZM1183.33 1503.49 1215.92 1522.5 1183.33 1541.51C1181.69 1542.47 1179.58 1541.91 1178.63 1540.27 1177.67 1538.63 1178.23 1536.53 1179.87 1535.57L1207.37 1519.53 1207.37 1525.47 1179.87 1509.43C1178.23 1508.47 1177.67 1506.37 1178.63 1504.73 1179.58 1503.09 1181.69 1502.53 1183.33 1503.49Z" fill="#7F7F7F"/><rect x="1062" y="1474" width="70.0001" height="94.9999" fill="#FFFFFF"/><text font-family="Calibri,Calibri_MSFontService,sans-serif" font-weight="400" font-size="55" transform="matrix(1 0 0 1 1074.92 1537)">Ja</text><path d="M595.5 666.448C595.5 631.683 623.683 603.5 658.448 603.5L3462.55 603.5C3497.32 603.5 3525.5 631.683 3525.5 666.448L3525.5 2059.55C3525.5 2094.32 3497.32 2122.5 3462.55 2122.5L658.448 2122.5C623.683 2122.5 595.5 2094.32 595.5 2059.55Z" stroke="#7F7F7F" stroke-width="6.875" stroke-miterlimit="8" stroke-dasharray="27.5 20.625" fill="none" fill-rule="evenodd"/><path d="M1826.5 483.333C1826.5 453.05 1900.37 428.5 1991.5 428.5 2082.63 428.5 2156.5 453.05 2156.5 483.333L2156.5 702.667C2156.5 732.95 2082.63 757.5 1991.5 757.5 1900.37 757.5 1826.5 732.95 1826.5 702.667Z" fill-rule="evenodd"/><path d="M2156.5 483.333C2156.5 513.617 2082.63 538.167 1991.5 538.167 1900.37 538.167 1826.5 513.617 1826.5 483.333" stroke="#FFFFFF" stroke-width="6.875" stroke-miterlimit="8" fill="none" fill-rule="evenodd"/><path d="M1826.5 483.333C1826.5 453.05 1900.37 428.5 1991.5 428.5 2082.63 428.5 2156.5 453.05 2156.5 483.333L2156.5 702.667C2156.5 732.95 2082.63 757.5 1991.5 757.5 1900.37 757.5 1826.5 732.95 1826.5 702.667Z" stroke="#FFFFFF" stroke-width="6.875" stroke-miterlimit="8" fill="none" fill-rule="evenodd"/><path d="M1874.5 599.167C1874.5 592.171 1880.17 586.5 1887.17 586.5L2094.83 586.5C2101.83 586.5 2107.5 592.171 2107.5 599.167L2107.5 649.833C2107.5 656.829 2101.83 662.5 2094.83 662.5L1887.17 662.5C1880.17 662.5 1874.5 656.829 1874.5 649.833Z" stroke="#FFFFFF" stroke-width="6.875" stroke-miterlimit="8" fill-rule="evenodd"/><text fill="#FFFFFF" font-family="Calibri,Calibri_MSFontService,sans-serif" font-weight="400" font-size="55" transform="matrix(1 0 0 1 1919.23 642)">Server</text><text fill="#FF0000" font-family="Cambria Math,Cambria Math_MSFontService,sans-serif" font-weight="700" font-size="147" transform="matrix(1 0 0 1 526.865 670)">⟳</text><path d="M672.5 688.834C672.5 670.977 686.976 656.5 704.834 656.5L1049.17 656.5C1067.02 656.5 1081.5 670.977 1081.5 688.834L1081.5 818.166C1081.5 836.023 1067.02 850.5 1049.17 850.5L704.834 850.5C686.976 850.5 672.5 836.023 672.5 818.166Z" stroke="#FFFFFF" stroke-width="4.58333" stroke-miterlimit="8" fill="#00B0F0" fill-rule="evenodd"/><text fill="#FFFFFF" font-family="Calibri,Calibri_MSFontService,sans-serif" font-weight="400" font-size="55" transform="matrix(1 0 0 1 741.391 705)">Sæt seneste </text><text fill="#FFFFFF" font-family="Calibri,Calibri_MSFontService,sans-serif" font-weight="400" font-size="55" transform="matrix(1 0 0 1 789.63 771)">lukkede </text><text fill="#FFFFFF" font-family="Calibri,Calibri_MSFontService,sans-serif" font-weight="400" font-size="55" transform="matrix(1 0 0 1 782.343 837)">bankdag</text><path d="M1824.5 1195.17C1824.5 1164.98 1898.37 1140.5 1989.5 1140.5 2080.63 1140.5 2154.5 1164.98 2154.5 1195.17L2154.5 1413.83C2154.5 1444.02 2080.63 1468.5 1989.5 1468.5 1898.37 1468.5 1824.5 1444.02 1824.5 1413.83Z" fill-rule="evenodd"/><path d="M2154.5 1195.17C2154.5 1225.36 2080.63 1249.83 1989.5 1249.83 1898.37 1249.83 1824.5 1225.36 1824.5 1195.17" stroke="#FFFFFF" stroke-width="6.875" stroke-miterlimit="8" fill="none" fill-rule="evenodd"/><path d="M1824.5 1195.17C1824.5 1164.98 1898.37 1140.5 1989.5 1140.5 2080.63 1140.5 2154.5 1164.98 2154.5 1195.17L2154.5 1413.83C2154.5 1444.02 2080.63 1468.5 1989.5 1468.5 1898.37 1468.5 1824.5 1444.02 1824.5 1413.83Z" stroke="#FFFFFF" stroke-width="6.875" stroke-miterlimit="8" fill="none" fill-rule="evenodd"/><path d="M1920.5 1318.17C1920.5 1311.17 1926.17 1305.5 1933.17 1305.5L2052.83 1305.5C2059.83 1305.5 2065.5 1311.17 2065.5 1318.17L2065.5 1368.83C2065.5 1375.83 2059.83 1381.5 2052.83 1381.5L1933.17 1381.5C1926.17 1381.5 1920.5 1375.83 1920.5 1368.83Z" stroke="#FFFFFF" stroke-width="6.875" stroke-miterlimit="8" fill-rule="evenodd"/><text fill="#FFFFFF" font-family="Calibri,Calibri_MSFontService,sans-serif" font-weight="400" font-size="55" transform="matrix(1 0 0 1 1960.72 1361)">DB</text><path d="M673.5 1009C673.5 991.051 688.051 976.5 706 976.5L1050 976.5C1067.95 976.5 1082.5 991.051 1082.5 1009L1082.5 1139C1082.5 1156.95 1067.95 1171.5 1050 1171.5L706 1171.5C688.051 1171.5 673.5 1156.95 673.5 1139Z" stroke="#FFFFFF" stroke-width="4.58333" stroke-miterlimit="8" fill="#00B0F0" fill-rule="evenodd"/><text fill="#FFFFFF" font-family="Calibri,Calibri_MSFontService,sans-serif" font-weight="400" font-size="55" transform="matrix(1 0 0 1 823.223 1059)">Hent </text><text fill="#FFFFFF" font-family="Calibri,Calibri_MSFontService,sans-serif" font-weight="400" font-size="55" transform="matrix(1 0 0 1 727.706 1125)">transaktioner</text><path d="M879.937 850.473 880.866 969.68 873.992 969.734 873.063 850.527ZM896.239 943.792 877.482 976.529 858.218 944.088C857.249 942.456 857.786 940.347 859.418 939.377 861.051 938.408 863.16 938.945 864.129 940.578L880.385 967.952 874.446 967.998 890.273 940.374C891.217 938.727 893.318 938.156 894.965 939.1 896.612 940.044 897.182 942.144 896.239 943.792Z" fill="#7F7F7F"/><path d="M3.43747-0.0133085 4.39347 246.913-2.48148 246.94-3.43747 0.0133085ZM19.867 221.086 0.982411 253.749-18.1545 221.233C-19.1175 219.597-18.5717 217.49-16.9356 216.527-15.2994 215.564-13.1924 216.11-12.2295 217.746L3.91851 245.184-2.01992 245.207 13.9152 217.645C14.8654 216.001 16.9681 215.439 18.6116 216.389 20.2552 217.34 20.8172 219.442 19.867 221.086Z" fill="#7F7F7F" transform="matrix(-1 0 0 1 877.482 1171.5)"/><path d="M1410.5 1519.06 1573.3 1519.06 1573.3 1525.94 1410.5 1525.94ZM1547.53 1503.49 1580.12 1522.5 1547.53 1541.51C1545.89 1542.47 1543.78 1541.91 1542.83 1540.27 1541.87 1538.63 1542.42 1536.53 1544.06 1535.57L1571.56 1519.53 1571.56 1525.47 1544.06 1509.43C1542.42 1508.47 1541.87 1506.37 1542.83 1504.73 1543.78 1503.09 1545.89 1502.53 1547.53 1503.49Z" fill="#7F7F7F"/><path d="M1215.5 1523 1313 1425.5 1410.5 1523 1313 1620.5Z" stroke="#FFFFFF" stroke-width="4.58333" stroke-miterlimit="8" fill="#FFC000" fill-rule="evenodd"/><path d="M1140.5 1563C1140.5 1556.65 1145.65 1551.5 1152 1551.5L1474 1551.5C1480.35 1551.5 1485.5 1556.65 1485.5 1563L1485.5 1609C1485.5 1615.35 1480.35 1620.5 1474 1620.5L1152 1620.5C1145.65 1620.5 1140.5 1615.35 1140.5 1609Z" stroke="#FFFFFF" stroke-width="6.875" stroke-miterlimit="8" fill="#FFC000" fill-rule="evenodd"/><text fill="#FFFFFF" font-family="Calibri,Calibri_MSFontService,sans-serif" font-weight="400" font-size="55" transform="matrix(1 0 0 1 1183.59 1603)">Flere sider?</text><path d="M1580.5 1523 1678 1425.5 1775.5 1523 1678 1620.5Z" stroke="#FFFFFF" stroke-width="4.58333" stroke-miterlimit="8" fill="#FFC000" fill-rule="evenodd"/><path d="M1505.5 1563C1505.5 1556.65 1510.65 1551.5 1517 1551.5L1839 1551.5C1845.35 1551.5 1850.5 1556.65 1850.5 1563L1850.5 1609C1850.5 1615.35 1845.35 1620.5 1839 1620.5L1517 1620.5C1510.65 1620.5 1505.5 1615.35 1505.5 1609Z" stroke="#FFFFFF" stroke-width="6.875" stroke-miterlimit="8" fill="#FFC000" fill-rule="evenodd"/><text fill="#FFFFFF" font-family="Calibri,Calibri_MSFontService,sans-serif" font-weight="400" font-size="55" transform="matrix(1 0 0 1 1546.96 1603)">Flere konti?</text><path d="M1478.5 1902C1478.5 1884.05 1493.05 1869.5 1511 1869.5L1842 1869.5C1859.95 1869.5 1874.5 1884.05 1874.5 1902L1874.5 2032C1874.5 2049.95 1859.95 2064.5 1842 2064.5L1511 2064.5C1493.05 2064.5 1478.5 2049.95 1478.5 2032Z" stroke="#FFFFFF" stroke-width="4.58333" stroke-miterlimit="8" fill="#00B0F0" fill-rule="evenodd"/><text fill="#FFFFFF" font-family="Calibri,Calibri_MSFontService,sans-serif" font-weight="400" font-size="55" transform="matrix(1 0 0 1 1601.5 1951)">Kontér </text><text fill="#FFFFFF" font-family="Calibri,Calibri_MSFontService,sans-serif" font-weight="400" font-size="55" transform="matrix(1 0 0 1 1526.38 2017)">transaktioner</text><path d="M3.43747-0.0153938 4.52106 241.954-2.35387 241.984-3.43747 0.0153938ZM19.9789 216.117 1.11415 248.792-18.0425 216.287C-19.0064 214.651-18.462 212.544-16.8264 211.58-15.1908 210.616-13.0835 211.161-12.1196 212.796L4.04505 240.224-1.89337 240.251 14.025 212.679C14.9742 211.035 17.0766 210.472 18.7207 211.421 20.3648 212.37 20.9282 214.473 19.9789 216.117Z" fill="#7F7F7F" transform="matrix(-1 0 0 1 1677.61 1620.5)"/><path d="M641.15 655.125 677.505 662.126 676.205 668.877 639.85 661.876ZM655.147 641.961 683.554 666.791 647.957 679.296C646.165 679.926 644.203 678.984 643.574 677.192 642.945 675.401 643.887 673.439 645.678 672.81L675.715 662.258 674.592 668.089 650.622 647.137C649.193 645.887 649.047 643.716 650.296 642.286 651.546 640.857 653.717 640.711 655.147 641.961Z"/><path d="M2052.5 1967 2150 1869.5 2247.5 1967 2150 2064.5Z" stroke="#FFFFFF" stroke-width="4.58333" stroke-miterlimit="8" fill="#FFC000" fill-rule="evenodd"/><path d="M1977.5 2006.17C1977.5 1999.72 1982.72 1994.5 1989.17 1994.5L2310.83 1994.5C2317.28 1994.5 2322.5 1999.72 2322.5 2006.17L2322.5 2052.83C2322.5 2059.28 2317.28 2064.5 2310.83 2064.5L1989.17 2064.5C1982.72 2064.5 1977.5 2059.28 1977.5 2052.83Z" stroke="#FFFFFF" stroke-width="6.875" stroke-miterlimit="8" fill="#FFC000" fill-rule="evenodd"/><text fill="#FFFFFF" font-family="Calibri,Calibri_MSFontService,sans-serif" font-weight="400" font-size="55" transform="matrix(1 0 0 1 2105.7 2047)">ØS?</text><path d="M1874.5 1963.06 2045.67 1963.06 2045.67 1969.94 1874.5 1969.94ZM2019.9 1947.49 2052.49 1966.5 2019.9 1985.51C2018.26 1986.47 2016.16 1985.91 2015.2 1984.27 2014.24 1982.63 2014.8 1980.53 2016.44 1979.57L2043.94 1963.53 2043.94 1969.47 2016.44 1953.43C2014.8 1952.47 2014.24 1950.37 2015.2 1948.73 2016.16 1947.09 2018.26 1946.53 2019.9 1947.49Z" fill="#7F7F7F"/><path d="M2427.5 1967 2525 1869.5 2622.5 1967 2525 2064.5Z" stroke="#FFFFFF" stroke-width="4.58333" stroke-miterlimit="8" fill="#FFC000" fill-rule="evenodd"/><path d="M2352.5 2006.17C2352.5 1999.72 2357.72 1994.5 2364.17 1994.5L2685.83 1994.5C2692.28 1994.5 2697.5 1999.72 2697.5 2006.17L2697.5 2052.83C2697.5 2059.28 2692.28 2064.5 2685.83 2064.5L2364.17 2064.5C2357.72 2064.5 2352.5 2059.28 2352.5 2052.83Z" stroke="#FFFFFF" stroke-width="6.875" stroke-miterlimit="8" fill="#FFC000" fill-rule="evenodd"/><text fill="#FFFFFF" font-family="Calibri,Calibri_MSFontService,sans-serif" font-weight="400" font-size="55" transform="matrix(1 0 0 1 2388.91 2047)">Integration?</text><path d="M2247.5 1963.06 2420.76 1963.06 2420.76 1969.94 2247.5 1969.94ZM2394.99 1947.49 2427.58 1966.5 2394.99 1985.51C2393.35 1986.47 2391.25 1985.91 2390.29 1984.27 2389.33 1982.63 2389.89 1980.53 2391.53 1979.57L2419.03 1963.53 2419.03 1969.47 2391.53 1953.43C2389.89 1952.47 2389.33 1950.37 2390.29 1948.73 2391.25 1947.09 2393.35 1946.53 2394.99 1947.49Z" fill="#7F7F7F"/><path d="M3004.5 1240C3004.5 1222.05 3019.05 1207.5 3037 1207.5L3367 1207.5C3384.95 1207.5 3399.5 1222.05 3399.5 1240L3399.5 1370C3399.5 1387.95 3384.95 1402.5 3367 1402.5L3037 1402.5C3019.05 1402.5 3004.5 1387.95 3004.5 1370Z" stroke="#FFFFFF" stroke-width="4.58333" stroke-miterlimit="8" fill="#00B0F0" fill-rule="evenodd"/><text fill="#FFFFFF" font-family="Calibri,Calibri_MSFontService,sans-serif" font-weight="400" font-size="55" transform="matrix(1 0 0 1 3120.77 1323)">Gem fil</text><path d="M0-3.4375 125.806-3.4375C127.704-3.4375 129.243-1.89848 129.243 0L129.243 557.097 122.368 557.097 122.368 0 125.806 3.4375 0 3.4375ZM144.817 531.329 125.806 563.919 106.795 531.329C105.838 529.689 106.392 527.584 108.032 526.628 109.672 525.671 111.777 526.225 112.733 527.865L128.775 555.365 122.836 555.365 138.878 527.865C139.835 526.225 141.939 525.671 143.579 526.628 145.219 527.584 145.773 529.689 144.817 531.329Z" fill="#7F7F7F" transform="matrix(1 0 0 -1 2622.5 1966.4)"/><path d="M0-3.4375 579.631-3.4375C581.53-3.4375 583.069-1.89848 583.069 0L583.069 557.145 576.194 557.145 576.194 0 579.631 3.4375 0 3.4375ZM598.642 531.378 579.631 563.968 560.621 531.378C559.664 529.738 560.218 527.633 561.858 526.677 563.498 525.72 565.602 526.274 566.559 527.914L582.601 555.414 576.662 555.414 592.704 527.914C593.66 526.274 595.765 525.72 597.405 526.677 599.045 527.633 599.599 529.738 598.642 531.378Z" fill="#7F7F7F" transform="matrix(1 0 0 -1 2622.5 1966.45)"/><path d="M165.5 1231.33C165.5 1201.05 239.373 1176.5 330.5 1176.5 421.627 1176.5 495.5 1201.05 495.5 1231.33L495.5 1450.67C495.5 1480.95 421.627 1505.5 330.5 1505.5 239.373 1505.5 165.5 1480.95 165.5 1450.67Z" fill="#FFFFFF" fill-rule="evenodd"/><path d="M495.5 1231.33C495.5 1261.62 421.627 1286.17 330.5 1286.17 239.373 1286.17 165.5 1261.62 165.5 1231.33" stroke="#000000" stroke-width="6.875" stroke-miterlimit="8" fill="none" fill-rule="evenodd"/><path d="M165.5 1231.33C165.5 1201.05 239.373 1176.5 330.5 1176.5 421.627 1176.5 495.5 1201.05 495.5 1231.33L495.5 1450.67C495.5 1480.95 421.627 1505.5 330.5 1505.5 239.373 1505.5 165.5 1480.95 165.5 1450.67Z" stroke="#000000" stroke-width="6.875" stroke-miterlimit="8" fill="none" fill-rule="evenodd"/><path d="M123.5 1333.33C123.5 1320.17 134.171 1309.5 147.334 1309.5L513.666 1309.5C526.829 1309.5 537.5 1320.17 537.5 1333.33L537.5 1428.67C537.5 1441.83 526.829 1452.5 513.666 1452.5L147.334 1452.5C134.171 1452.5 123.5 1441.83 123.5 1428.67Z" stroke="#000000" stroke-width="6.875" stroke-miterlimit="8" fill="#FFFFFF" fill-rule="evenodd"/><text font-family="Calibri,Calibri_MSFontService,sans-serif" font-weight="400" font-size="55" transform="matrix(1 0 0 1 166.284 1365)">Open Banking</text><text font-family="Calibri,Calibri_MSFontService,sans-serif" font-weight="400" font-size="55" transform="matrix(1 0 0 1 477.378 1365)">-</text><text font-family="Calibri,Calibri_MSFontService,sans-serif" font-weight="400" font-size="55" transform="matrix(1 0 0 1 209.643 1431)">leverandør</text><path d="M3625.5 1231.33C3625.5 1201.05 3699.37 1176.5 3790.5 1176.5 3881.63 1176.5 3955.5 1201.05 3955.5 1231.33L3955.5 1450.67C3955.5 1480.95 3881.63 1505.5 3790.5 1505.5 3699.37 1505.5 3625.5 1480.95 3625.5 1450.67Z" fill="#FFFFFF" fill-rule="evenodd"/><path d="M3955.5 1231.33C3955.5 1261.62 3881.63 1286.17 3790.5 1286.17 3699.37 1286.17 3625.5 1261.62 3625.5 1231.33" stroke="#000000" stroke-width="6.875" stroke-miterlimit="8" fill="none" fill-rule="evenodd"/><path d="M3625.5 1231.33C3625.5 1201.05 3699.37 1176.5 3790.5 1176.5 3881.63 1176.5 3955.5 1201.05 3955.5 1231.33L3955.5 1450.67C3955.5 1480.95 3881.63 1505.5 3790.5 1505.5 3699.37 1505.5 3625.5 1480.95 3625.5 1450.67Z" stroke="#000000" stroke-width="6.875" stroke-miterlimit="8" fill="none" fill-rule="evenodd"/><path d="M3625.5 1352.67C3625.5 1345.95 3630.95 1340.5 3637.67 1340.5L3943.33 1340.5C3950.05 1340.5 3955.5 1345.95 3955.5 1352.67L3955.5 1401.33C3955.5 1408.05 3950.05 1413.5 3943.33 1413.5L3637.67 1413.5C3630.95 1413.5 3625.5 1408.05 3625.5 1401.33Z" stroke="#000000" stroke-width="6.875" stroke-miterlimit="8" fill="#FFFFFF" fill-rule="evenodd"/><text font-family="Calibri,Calibri_MSFontService,sans-serif" font-weight="400" font-size="55" transform="matrix(1 0 0 1 3671.48 1395)">FTP</text><text font-family="Calibri,Calibri_MSFontService,sans-serif" font-weight="400" font-size="55" transform="matrix(1 0 0 1 3752.26 1395)">-</text><text font-family="Calibri,Calibri_MSFontService,sans-serif" font-weight="400" font-size="55" transform="matrix(1 0 0 1 3768.87 1395)">server</text><rect x="2712" y="1637" width="70.0002" height="95.9999" fill="#FFFFFF"/><text font-family="Calibri,Calibri_MSFontService,sans-serif" font-weight="400" font-size="55" transform="matrix(1 0 0 1 2729.68 1701)">N</text><rect x="3166" y="1637" width="70.0002" height="95.9999" fill="#FFFFFF"/><text font-family="Calibri,Calibri_MSFontService,sans-serif" font-weight="400" font-size="55" transform="matrix(1 0 0 1 3192.38 1701)">J</text><path d="M2550.01 1308.78 2161.3 1307.95 2161.31 1301.08 2550.02 1301.91ZM2187.03 1323.58 2154.48 1304.5 2187.11 1285.56C2188.76 1284.61 2190.86 1285.16 2191.81 1286.81 2192.77 1288.45 2192.21 1290.55 2190.57 1291.5L2163.03 1307.49 2163.04 1301.55 2190.51 1317.65C2192.15 1318.61 2192.7 1320.72 2191.74 1322.35 2190.78 1323.99 2188.67 1324.54 2187.03 1323.58Z" fill="#7F7F7F"/><path d="M2550.5 1240C2550.5 1222.05 2565.05 1207.5 2583 1207.5L2913 1207.5C2930.95 1207.5 2945.5 1222.05 2945.5 1240L2945.5 1370C2945.5 1387.95 2930.95 1402.5 2913 1402.5L2583 1402.5C2565.05 1402.5 2550.5 1387.95 2550.5 1370Z" stroke="#FFFFFF" stroke-width="4.58333" stroke-miterlimit="8" fill="#00B0F0" fill-rule="evenodd"/><text fill="#FFFFFF" font-family="Calibri,Calibri_MSFontService,sans-serif" font-weight="400" font-size="55" transform="matrix(1 0 0 1 2703.05 1290)">Dan </text><text fill="#FFFFFF" font-family="Calibri,Calibri_MSFontService,sans-serif" font-weight="400" font-size="55" transform="matrix(1 0 0 1 2627.12 1356)">finansbilag</text><path d="M779.5 1523 877 1425.5 974.5 1523 877 1620.5Z" stroke="#FFFFFF" stroke-width="4.58333" stroke-miterlimit="8" fill="#FFC000" fill-rule="evenodd"/><path d="M704.5 1563C704.5 1556.65 709.649 1551.5 716 1551.5L1038 1551.5C1044.35 1551.5 1049.5 1556.65 1049.5 1563L1049.5 1609C1049.5 1615.35 1044.35 1620.5 1038 1620.5L716 1620.5C709.649 1620.5 704.5 1615.35 704.5 1609Z" stroke="#FFFFFF" stroke-width="6.875" stroke-miterlimit="8" fill="#FFC000" fill-rule="evenodd"/><text fill="#FFFFFF" font-family="Calibri,Calibri_MSFontService,sans-serif" font-weight="400" font-size="55" transform="matrix(1 0 0 1 766.037 1603)">HTTP OK?</text><path d="M327.062 1176.71 327.062 1074.5C327.062 1072.6 328.601 1071.06 330.5 1071.06L666.663 1071.06 666.663 1077.94 330.5 1077.94 333.937 1074.5 333.937 1176.71ZM640.894 1055.49 673.484 1074.5 640.894 1093.51C639.254 1094.47 637.149 1093.91 636.193 1092.27 635.236 1090.63 635.79 1088.53 637.43 1087.57L664.93 1071.53 664.93 1077.47 637.43 1061.43C635.79 1060.47 635.236 1058.37 636.193 1056.73 637.149 1055.09 639.254 1054.53 640.894 1055.49Z" fill="#7F7F7F"/><path d="M671.5 1902C671.5 1884.05 686.051 1869.5 704.001 1869.5L1047 1869.5C1064.95 1869.5 1079.5 1884.05 1079.5 1902L1079.5 2032C1079.5 2049.95 1064.95 2064.5 1047 2064.5L704.001 2064.5C686.051 2064.5 671.5 2049.95 671.5 2032Z" stroke="#FFFFFF" stroke-width="4.58333" stroke-miterlimit="8" fill="#00B0F0" fill-rule="evenodd"/><text fill="#FFFFFF" font-family="Calibri,Calibri_MSFontService,sans-serif" font-weight="400" font-size="55" transform="matrix(1 0 0 1 821.309 1984)">Auth</text><path d="M3.43746-0.0173036 4.65549 241.952-2.21942 241.986-3.43746 0.0173036ZM20.099 216.106 1.25238 248.792-17.9223 216.298C-18.8872 214.663-18.3439 212.555-16.7088 211.59-15.0738 210.625-12.9662 211.169-12.0014 212.804L4.17852 240.223-1.75989 240.253 14.1432 212.672C15.0915 211.027 17.1935 210.463 18.8382 211.411 20.4828 212.36 21.0473 214.462 20.099 216.106Z" fill="#7F7F7F" transform="matrix(-1 0 0 1 876.752 1620.5)"/><path d="M664.428 1970.4 330.5 1970.4C328.601 1970.4 327.062 1968.86 327.062 1966.96L327.062 1512.31 333.937 1512.31 333.937 1966.96 330.5 1963.52 664.428 1963.52ZM638.66 1947.95 671.25 1966.96 638.66 1985.97C637.02 1986.93 634.915 1986.37 633.958 1984.73 633.002 1983.09 633.556 1980.99 635.196 1980.03L662.696 1963.99 662.696 1969.93 635.196 1953.89C633.556 1952.93 633.002 1950.82 633.958 1949.18 634.915 1947.54 637.02 1946.99 638.66 1947.95ZM311.489 1538.07 330.5 1505.48 349.511 1538.07C350.467 1539.71 349.913 1541.82 348.274 1542.78 346.634 1543.73 344.529 1543.18 343.572 1541.54L327.531 1514.04 333.469 1514.04 317.427 1541.54C316.471 1543.18 314.366 1543.73 312.726 1542.78 311.086 1541.82 310.532 1539.71 311.489 1538.07Z" fill="#7F7F7F"/><path d="M0-3.4375 531.116-3.4375C533.014-3.4375 534.553-1.89848 534.553 0L534.553 799.787C534.553 801.685 533.014 803.224 531.116 803.224L455.421 803.224 455.421 796.349 531.116 796.349 527.678 799.787 527.678 0 531.116 3.4375 0 3.4375ZM481.189 818.798 448.599 799.787 481.189 780.776C482.829 779.819 484.934 780.373 485.891 782.013 486.847 783.653 486.293 785.758 484.654 786.714L457.154 802.756 457.154 796.817 484.654 812.859C486.293 813.816 486.847 815.92 485.891 817.56 484.934 819.2 482.829 819.754 481.189 818.798Z" fill="#7F7F7F" transform="matrix(-1.83697e-16 -1 -1 1.83697e-16 1677.29 1425.12)"/><path d="M0-3.4375 531.115-3.4375C533.014-3.4375 534.553-1.89848 534.553 0L534.553 435.303C534.553 437.202 533.014 438.741 531.115 438.741L455.421 438.741 455.421 431.866 531.115 431.866 527.678 435.303 527.678 0 531.115 3.4375 0 3.4375ZM481.189 454.314 448.599 435.303 481.189 416.292C482.829 415.336 484.934 415.89 485.891 417.53 486.847 419.169 486.293 421.274 484.654 422.231L457.154 438.273 457.154 432.334 484.654 448.376C486.293 449.332 486.847 451.437 485.891 453.077 484.934 454.717 482.829 455.271 481.189 454.314Z" fill="#7F7F7F" transform="matrix(-1.83697e-16 -1 -1 1.83697e-16 1312.8 1425.12)"/><path d="M0 0 218.224 0 218.224 1111.77 163.224 1111.77" stroke="#7F7F7F" stroke-width="6.875" stroke-miterlimit="8" stroke-dasharray="27.5 20.625" fill="none" fill-rule="evenodd" transform="matrix(-1.83697e-16 -1 -1 1.83697e-16 1989.27 1139.72)"/><path d="M0 0 139.597 0 139.597 116.954" stroke="#7F7F7F" stroke-width="6.875" stroke-miterlimit="8" stroke-dasharray="27.5 20.625" fill="none" fill-rule="evenodd" transform="matrix(1 0 0 -1 1850.5 1585.45)"/><path d="M1989.6 1468.5 1989.6 1668.72 1676.5 1668.72 1676.5 1868.95" stroke="#7F7F7F" stroke-width="6.875" stroke-miterlimit="8" stroke-dasharray="27.5 20.625" fill="none" fill-rule="evenodd"/><path d="M3399.5 1302.06 3471.13 1302.06C3473.03 1302.06 3474.56 1303.6 3474.56 1305.5L3474.56 1341.13 3471.13 1337.7 3618.45 1337.7 3618.45 1344.57 3471.13 1344.57C3469.23 1344.57 3467.69 1343.03 3467.69 1341.13L3467.69 1305.5 3471.13 1308.94 3399.5 1308.94ZM3592.68 1322.12 3625.27 1341.13 3592.68 1360.14C3591.04 1361.1 3588.94 1360.55 3587.98 1358.91 3587.02 1357.27 3587.58 1355.16 3589.22 1354.21L3616.72 1338.16 3616.72 1344.1 3589.22 1328.06C3587.58 1327.1 3587.02 1325 3587.98 1323.36 3588.94 1321.72 3591.04 1321.17 3592.68 1322.12Z" fill="#7F7F7F"/><rect x="1642" y="1139" width="69.9998" height="95.0002" fill="#FFFFFF"/><text font-family="Calibri,Calibri_MSFontService,sans-serif" font-weight="400" font-size="55" transform="matrix(1 0 0 1 1655.13 1203)">Ja</text><rect x="1278" y="1139" width="69.9998" height="95.0002" fill="#FFFFFF"/><text font-family="Calibri,Calibri_MSFontService,sans-serif" font-weight="400" font-size="55" transform="matrix(1 0 0 1 1290.64 1203)">Ja</text><path d="M714.281 1872.2 703.939 1822.69 693.921 1773.33 684.556 1724.31 676.174 1675.79 672.451 1651.75 669.1 1627.92 666.159 1604.3 663.671 1580.92 661.676 1557.79 660.215 1534.94 659.331 1512.39 659.065 1490.15 659.66 1467.63 661.25 1444.39 663.703 1420.69 666.893 1396.74 670.69 1372.76 674.968 1348.94 679.598 1325.52 684.453 1302.7 689.407 1280.7 694.331 1259.73 699.1 1240.01 701.387 1230.69 703.585 1221.76 705.681 1213.25 707.658 1205.19 709.501 1197.61 711.192 1190.53 712.717 1183.99 714.058 1178 714.808 1174.46 721.534 1175.89 720.767 1179.51 719.413 1185.55 717.879 1192.13 716.181 1199.23 714.335 1206.83 712.357 1214.9 710.261 1223.4 708.064 1232.32 705.782 1241.63 701.024 1261.3 696.114 1282.21 691.177 1304.13 686.342 1326.85 681.734 1350.16 677.481 1373.83 673.708 1397.65 670.542 1421.4 668.109 1444.86 666.533 1467.81 665.94 1490.07 666.201 1512.12 667.076 1534.5 668.525 1557.2 670.507 1580.19 672.982 1603.45 675.908 1626.96 679.245 1650.7 682.948 1674.62 691.309 1723.02 700.658 1771.97 710.669 1821.28 721.011 1870.8ZM694.493 1196.73 719.503 1168.48 731.783 1204.16C732.401 1205.95 731.447 1207.91 729.652 1208.53 727.857 1209.15 725.9 1208.19 725.283 1206.4L714.92 1176.29 720.745 1177.45 699.641 1201.29C698.383 1202.71 696.21 1202.84 694.789 1201.59 693.367 1200.33 693.235 1198.16 694.493 1196.73Z" fill="#7F7F7F"/><path d="M3198.16 1207.5 3198.16 1125 3201.59 1128.44 2392.74 1128.44 2396.18 1125 2396.18 1304.15C2396.18 1306.04 2394.64 1307.58 2392.74 1307.58L2161.31 1307.58 2161.31 1300.71 2392.74 1300.71 2389.31 1304.15 2389.31 1125C2389.31 1123.1 2390.85 1121.56 2392.74 1121.56L3201.59 1121.56C3203.49 1121.56 3205.03 1123.1 3205.03 1125L3205.03 1207.5ZM2187.07 1323.16 2154.48 1304.15 2187.07 1285.14C2188.71 1284.18 2190.82 1284.73 2191.78 1286.37 2192.73 1288.01 2192.18 1290.12 2190.54 1291.07L2163.04 1307.12 2163.04 1301.18 2190.54 1317.22C2192.18 1318.18 2192.73 1320.28 2191.78 1321.92 2190.82 1323.56 2188.71 1324.11 2187.07 1323.16Z" fill="#7F7F7F"/></g></svg>
