<svg width="3839" height="1701" xmlns="http://www.w3.org/2000/svg" xmlns:xlink="http://www.w3.org/1999/xlink" xml:space="preserve" overflow="hidden"><g transform="translate(-120 -425)"><path d="M3003.84 1308.73 2161.3 1307.94 2161.31 1301.07 3003.84 1301.86ZM2187.06 1323.54 2154.48 1304.5 2187.09 1285.52C2188.73 1284.56 2190.84 1285.12 2191.79 1286.76 2192.75 1288.4 2192.19 1290.51 2190.55 1291.46L2163.04 1307.48 2163.04 1301.54 2190.53 1317.61C2192.17 1318.56 2192.72 1320.67 2191.76 1322.31 2190.8 1323.95 2188.7 1324.5 2187.06 1323.54Z" fill="#7F7F7F"/><path d="M595.5 666.448C595.5 631.683 623.683 603.5 658.448 603.5L3462.55 603.5C3497.32 603.5 3525.5 631.683 3525.5 666.448L3525.5 2059.55C3525.5 2094.32 3497.32 2122.5 3462.55 2122.5L658.448 2122.5C623.683 2122.5 595.5 2094.32 595.5 2059.55Z" stroke="#7F7F7F" stroke-width="6.875" stroke-miterlimit="8" stroke-dasharray="27.5 20.625" fill="none" fill-rule="evenodd"/><path d="M1826.5 483.333C1826.5 453.05 1900.37 428.5 1991.5 428.5 2082.63 428.5 2156.5 453.05 2156.5 483.333L2156.5 702.667C2156.5 732.95 2082.63 757.5 1991.5 757.5 1900.37 757.5 1826.5 732.95 1826.5 702.667Z" fill-rule="evenodd"/><path d="M2156.5 483.333C2156.5 513.617 2082.63 538.167 1991.5 538.167 1900.37 538.167 1826.5 513.617 1826.5 483.333" stroke="#FFFFFF" stroke-width="6.875" stroke-miterlimit="8" fill="none" fill-rule="evenodd"/><path d="M1826.5 483.333C1826.5 453.05 1900.37 428.5 1991.5 428.5 2082.63 428.5 2156.5 453.05 2156.5 483.333L2156.5 702.667C2156.5 732.95 2082.63 757.5 1991.5 757.5 1900.37 757.5 1826.5 732.95 1826.5 702.667Z" stroke="#FFFFFF" stroke-width="6.875" stroke-miterlimit="8" fill="none" fill-rule="evenodd"/><path d="M1874.5 599.167C1874.5 592.171 1880.17 586.5 1887.17 586.5L2094.83 586.5C2101.83 586.5 2107.5 592.171 2107.5 599.167L2107.5 649.833C2107.5 656.829 2101.83 662.5 2094.83 662.5L1887.17 662.5C1880.17 662.5 1874.5 656.829 1874.5 649.833Z" stroke="#FFFFFF" stroke-width="6.875" stroke-miterlimit="8" fill-rule="evenodd"/><text fill="#FFFFFF" font-family="Calibri,Calibri_MSFontService,sans-serif" font-weight="400" font-size="55" transform="matrix(1 0 0 1 1919.23 642)">Server</text><text fill="#FF0000" font-family="Cambria Math,Cambria Math_MSFontService,sans-serif" font-weight="700" font-size="147" transform="matrix(1 0 0 1 526.865 670)">⟳</text><path d="M712.5 688.834C712.5 670.977 726.977 656.5 744.834 656.5L1088.17 656.5C1106.02 656.5 1120.5 670.977 1120.5 688.834L1120.5 818.166C1120.5 836.023 1106.02 850.5 1088.17 850.5L744.834 850.5C726.977 850.5 712.5 836.023 712.5 818.166Z" stroke="#FFFFFF" stroke-width="4.58333" stroke-miterlimit="8" fill="#00B0F0" fill-rule="evenodd"/><text fill="#FFFFFF" font-family="Calibri,Calibri_MSFontService,sans-serif" font-weight="400" font-size="55" transform="matrix(1 0 0 1 780.923 705)">Sæ</text><text fill="#FFFFFF" font-family="Calibri,Calibri_MSFontService,sans-serif" font-weight="400" font-size="55" transform="matrix(1 0 0 1 848.229 705)">t</text><text fill="#FFFFFF" font-family="Calibri,Calibri_MSFontService,sans-serif" font-weight="400" font-size="55" transform="matrix(1 0 0 1 879.167 705)">seneste </text><text fill="#FFFFFF" font-family="Calibri,Calibri_MSFontService,sans-serif" font-weight="400" font-size="55" transform="matrix(1 0 0 1 829.163 771)">lukkede </text><text fill="#FFFFFF" font-family="Calibri,Calibri_MSFontService,sans-serif" font-weight="400" font-size="55" transform="matrix(1 0 0 1 821.875 837)">bankdag</text><path d="M1824.5 1195.17C1824.5 1164.98 1898.37 1140.5 1989.5 1140.5 2080.63 1140.5 2154.5 1164.98 2154.5 1195.17L2154.5 1413.83C2154.5 1444.02 2080.63 1468.5 1989.5 1468.5 1898.37 1468.5 1824.5 1444.02 1824.5 1413.83Z" fill-rule="evenodd"/><path d="M2154.5 1195.17C2154.5 1225.36 2080.63 1249.83 1989.5 1249.83 1898.37 1249.83 1824.5 1225.36 1824.5 1195.17" stroke="#FFFFFF" stroke-width="6.875" stroke-miterlimit="8" fill="none" fill-rule="evenodd"/><path d="M1824.5 1195.17C1824.5 1164.98 1898.37 1140.5 1989.5 1140.5 2080.63 1140.5 2154.5 1164.98 2154.5 1195.17L2154.5 1413.83C2154.5 1444.02 2080.63 1468.5 1989.5 1468.5 1898.37 1468.5 1824.5 1444.02 1824.5 1413.83Z" stroke="#FFFFFF" stroke-width="6.875" stroke-miterlimit="8" fill="none" fill-rule="evenodd"/><path d="M1920.5 1318.17C1920.5 1311.17 1926.17 1305.5 1933.17 1305.5L2052.83 1305.5C2059.83 1305.5 2065.5 1311.17 2065.5 1318.17L2065.5 1368.83C2065.5 1375.83 2059.83 1381.5 2052.83 1381.5L1933.17 1381.5C1926.17 1381.5 1920.5 1375.83 1920.5 1368.83Z" stroke="#FFFFFF" stroke-width="6.875" stroke-miterlimit="8" fill-rule="evenodd"/><text fill="#FFFFFF" font-family="Calibri,Calibri_MSFontService,sans-serif" font-weight="400" font-size="55" transform="matrix(1 0 0 1 1960.72 1361)">DB</text><path d="M713.5 1011C713.5 993.051 728.051 978.5 746.001 978.5L1089 978.5C1106.95 978.5 1121.5 993.051 1121.5 1011L1121.5 1141C1121.5 1158.95 1106.95 1173.5 1089 1173.5L746.001 1173.5C728.051 1173.5 713.5 1158.95 713.5 1141Z" stroke="#FFFFFF" stroke-width="4.58333" stroke-miterlimit="8" fill="#00B0F0" fill-rule="evenodd"/><text fill="#FFFFFF" font-family="Calibri,Calibri_MSFontService,sans-serif" font-weight="400" font-size="55" transform="matrix(1 0 0 1 862.755 1061)">Hent </text><text fill="#FFFFFF" font-family="Calibri,Calibri_MSFontService,sans-serif" font-weight="400" font-size="55" transform="matrix(1 0 0 1 767.239 1127)">transaktioner</text><path d="M919.937 850.474 920.867 971.46 913.992 971.513 913.063 850.526ZM936.242 945.574 917.482 978.309 898.221 945.866C897.252 944.233 897.79 942.124 899.422 941.155 901.055 940.186 903.164 940.724 904.133 942.356L920.385 969.732 914.447 969.778 930.277 942.155C931.221 940.508 933.322 939.938 934.969 940.882 936.616 941.826 937.186 943.927 936.242 945.574Z" fill="#7F7F7F"/><path d="M3.43747-0.0134012 4.39329 245.158-2.48166 245.185-3.43747 0.0134012ZM19.8661 219.33 0.982411 251.994-18.1554 219.478C-19.1184 217.842-18.5727 215.735-16.9366 214.772-15.3004 213.809-13.1934 214.355-12.2305 215.991L3.91828 243.428-2.02015 243.452 13.9142 215.889C14.8644 214.246 16.967 213.684 18.6106 214.634 20.2542 215.584 20.8163 217.687 19.8661 219.33Z" fill="#7F7F7F" transform="matrix(-1 0 0 1 917.482 1173.5)"/><path d="M3.4375-1.92481e-05 3.43782 57.6451-3.43718 57.6452-3.4375 1.92481e-05ZM19.0111 31.8771 0.000360913 64.4673-19.0107 31.8773C-19.9673 30.2375-19.4134 28.1326-17.7736 27.176-16.1337 26.2194-14.0289 26.7733-13.0723 28.4132L2.96955 55.9131-2.96893 55.9131 13.0726 28.413C14.0292 26.7732 16.134 26.2192 17.7739 27.1758 19.4137 28.1324 19.9677 30.2372 19.0111 31.8771Z" fill="#7F7F7F" transform="matrix(-1 0 0 1 1469.5 1173.5)"/><path d="M1371.5 1076 1469 978.5 1566.5 1076 1469 1173.5Z" stroke="#FFFFFF" stroke-width="4.58333" stroke-miterlimit="8" fill="#FFC000" fill-rule="evenodd"/><path d="M1296.5 1116C1296.5 1109.65 1301.65 1104.5 1308 1104.5L1630 1104.5C1636.35 1104.5 1641.5 1109.65 1641.5 1116L1641.5 1162C1641.5 1168.35 1636.35 1173.5 1630 1173.5L1308 1173.5C1301.65 1173.5 1296.5 1168.35 1296.5 1162Z" stroke="#FFFFFF" stroke-width="6.875" stroke-miterlimit="8" fill="#FFC000" fill-rule="evenodd"/><text fill="#FFFFFF" font-family="Calibri,Calibri_MSFontService,sans-serif" font-weight="400" font-size="55" transform="matrix(1 0 0 1 1339.45 1156)">Flere sider?</text><path d="M1371.5 1335.5 1469 1238.5 1566.5 1335.5 1469 1432.5Z" stroke="#FFFFFF" stroke-width="4.58333" stroke-miterlimit="8" fill="#FFC000" fill-rule="evenodd"/><path d="M1296.5 1375C1296.5 1368.65 1301.65 1363.5 1308 1363.5L1630 1363.5C1636.35 1363.5 1641.5 1368.65 1641.5 1375L1641.5 1421C1641.5 1427.35 1636.35 1432.5 1630 1432.5L1308 1432.5C1301.65 1432.5 1296.5 1427.35 1296.5 1421Z" stroke="#FFFFFF" stroke-width="6.875" stroke-miterlimit="8" fill="#FFC000" fill-rule="evenodd"/><text fill="#FFFFFF" font-family="Calibri,Calibri_MSFontService,sans-serif" font-weight="400" font-size="55" transform="matrix(1 0 0 1 1338.34 1416)">Flere konti?</text><path d="M1271.5 1905C1271.5 1887.05 1286.05 1872.5 1304 1872.5L1634 1872.5C1651.95 1872.5 1666.5 1887.05 1666.5 1905L1666.5 2035C1666.5 2052.95 1651.95 2067.5 1634 2067.5L1304 2067.5C1286.05 2067.5 1271.5 2052.95 1271.5 2035Z" stroke="#FFFFFF" stroke-width="4.58333" stroke-miterlimit="8" fill="#00B0F0" fill-rule="evenodd"/><text fill="#FFFFFF" font-family="Calibri,Calibri_MSFontService,sans-serif" font-weight="400" font-size="55" transform="matrix(1 0 0 1 1393.99 1954)">Kontér </text><text fill="#FFFFFF" font-family="Calibri,Calibri_MSFontService,sans-serif" font-weight="400" font-size="55" transform="matrix(1 0 0 1 1318.87 2020)">transaktioner</text><path d="M1472.94 1432.5 1472.94 1865.25 1466.06 1865.25 1466.06 1432.5ZM1488.51 1839.48 1469.5 1872.07 1450.49 1839.48C1449.53 1837.84 1450.09 1835.74 1451.73 1834.78 1453.37 1833.82 1455.47 1834.38 1456.43 1836.02L1472.47 1863.52 1466.53 1863.52 1482.57 1836.02C1483.53 1834.38 1485.63 1833.82 1487.27 1834.78 1488.91 1835.74 1489.47 1837.84 1488.51 1839.48Z" fill="#7F7F7F"/><path d="M670.15 659.124 706.505 666.126 705.205 672.877 668.85 665.875ZM684.147 645.96 712.554 670.791 676.957 683.296C675.166 683.925 673.204 682.983 672.574 681.192 671.945 679.401 672.887 677.439 674.678 676.81L704.716 666.258 703.593 672.089 679.622 651.137C678.193 649.887 678.047 647.716 679.297 646.286 680.546 644.857 682.718 644.711 684.147 645.96Z"/><path d="M1890.5 1969.5 1988 1872.5 2085.5 1969.5 1988 2066.5Z" stroke="#FFFFFF" stroke-width="4.58333" stroke-miterlimit="8" fill="#FFC000" fill-rule="evenodd"/><path d="M1815.5 2009C1815.5 2002.65 1820.65 1997.5 1827 1997.5L2149 1997.5C2155.35 1997.5 2160.5 2002.65 2160.5 2009L2160.5 2055C2160.5 2061.35 2155.35 2066.5 2149 2066.5L1827 2066.5C1820.65 2066.5 1815.5 2061.35 1815.5 2055Z" stroke="#FFFFFF" stroke-width="6.875" stroke-miterlimit="8" fill="#FFC000" fill-rule="evenodd"/><text fill="#FFFFFF" font-family="Calibri,Calibri_MSFontService,sans-serif" font-weight="400" font-size="55" transform="matrix(1 0 0 1 1943.92 2050)">ØS?</text><path d="M0.00636082-3.43749 216.902-3.03614 216.889 3.83884-0.00636082 3.43749ZM191.163-18.6572 223.718 0.413973 191.093 19.3645C189.451 20.3181 187.347 19.7603 186.394 18.1187 185.44 16.477 185.998 14.3732 187.64 13.4197L215.169-2.57109 215.158 3.36738 187.688-12.7251C186.05-13.6848 185.5-15.7906 186.46-17.4287 187.419-19.0668 189.525-19.6168 191.163-18.6572Z" fill="#7F7F7F" transform="matrix(1 0 0 -1 1666.5 1969.91)"/><path d="M2384.5 1969.5 2481.5 1872.5 2578.5 1969.5 2481.5 2066.5Z" stroke="#FFFFFF" stroke-width="4.58333" stroke-miterlimit="8" fill="#FFC000" fill-rule="evenodd"/><path d="M2309.5 2009C2309.5 2002.65 2314.65 1997.5 2321 1997.5L2642 1997.5C2648.35 1997.5 2653.5 2002.65 2653.5 2009L2653.5 2055C2653.5 2061.35 2648.35 2066.5 2642 2066.5L2321 2066.5C2314.65 2066.5 2309.5 2061.35 2309.5 2055Z" stroke="#FFFFFF" stroke-width="6.875" stroke-miterlimit="8" fill="#FFC000" fill-rule="evenodd"/><text fill="#FFFFFF" font-family="Calibri,Calibri_MSFontService,sans-serif" font-weight="400" font-size="55" transform="matrix(1 0 0 1 2345.72 2050)">Integration</text><text fill="#FFFFFF" font-family="Calibri,Calibri_MSFontService,sans-serif" font-weight="400" font-size="55" transform="matrix(1 0 0 1 2591.06 2050)">?</text><path d="M2085.5 1966.06 2377.34 1966.06 2377.34 1972.94 2085.5 1972.94ZM2351.57 1950.49 2384.16 1969.5 2351.57 1988.51C2349.93 1989.47 2347.83 1988.91 2346.87 1987.27 2345.92 1985.63 2346.47 1983.53 2348.11 1982.57L2375.61 1966.53 2375.61 1972.47 2348.11 1956.43C2346.47 1955.47 2345.92 1953.37 2346.87 1951.73 2347.83 1950.09 2349.93 1949.53 2351.57 1950.49Z" fill="#7F7F7F"/><path d="M3004.5 1240C3004.5 1222.05 3019.05 1207.5 3037 1207.5L3367 1207.5C3384.95 1207.5 3399.5 1222.05 3399.5 1240L3399.5 1370C3399.5 1387.95 3384.95 1402.5 3367 1402.5L3037 1402.5C3019.05 1402.5 3004.5 1387.95 3004.5 1370Z" stroke="#FFFFFF" stroke-width="4.58333" stroke-miterlimit="8" fill="#00B0F0" fill-rule="evenodd"/><text fill="#FFFFFF" font-family="Calibri,Calibri_MSFontService,sans-serif" font-weight="400" font-size="55" transform="matrix(1 0 0 1 3120.77 1323)">Gem fil</text><path d="M0-3.4375 169.003-3.4375C170.901-3.4375 172.441-1.89848 172.441 0L172.441 558.298 165.566 558.298 165.566 0 169.003 3.4375 0 3.4375ZM188.014 532.531 169.003 565.121 149.992 532.531C149.036 530.891 149.589 528.786 151.229 527.83 152.869 526.873 154.974 527.427 155.931 529.067L171.972 556.567 166.034 556.567 182.075 529.067C183.032 527.427 185.137 526.873 186.777 527.83 188.417 528.786 188.971 530.891 188.014 532.531Z" fill="#7F7F7F" transform="matrix(1 0 0 -1 2578.5 1969.61)"/><path d="M0-3.4375 622.829-3.4375C624.727-3.4375 626.266-1.89848 626.266 0L626.266 559.961 619.391 559.961 619.391 0 622.829 3.4375 0 3.4375ZM641.84 534.191 622.829 566.782 603.818 534.191C602.861 532.552 603.415 530.447 605.055 529.49 606.695 528.534 608.8 529.087 609.756 530.727L625.798 558.227 619.86 558.227 635.901 530.727C636.858 529.087 638.963 528.534 640.603 529.49 642.242 530.447 642.796 532.552 641.84 534.191Z" fill="#7F7F7F" transform="matrix(1 0 0 -1 2578.5 1969.27)"/><path d="M165.5 1231.33C165.5 1201.05 239.373 1176.5 330.5 1176.5 421.627 1176.5 495.5 1201.05 495.5 1231.33L495.5 1450.67C495.5 1480.95 421.627 1505.5 330.5 1505.5 239.373 1505.5 165.5 1480.95 165.5 1450.67Z" fill="#FFFFFF" fill-rule="evenodd"/><path d="M495.5 1231.33C495.5 1261.62 421.627 1286.17 330.5 1286.17 239.373 1286.17 165.5 1261.62 165.5 1231.33" stroke="#000000" stroke-width="6.875" stroke-miterlimit="8" fill="none" fill-rule="evenodd"/><path d="M165.5 1231.33C165.5 1201.05 239.373 1176.5 330.5 1176.5 421.627 1176.5 495.5 1201.05 495.5 1231.33L495.5 1450.67C495.5 1480.95 421.627 1505.5 330.5 1505.5 239.373 1505.5 165.5 1480.95 165.5 1450.67Z" stroke="#000000" stroke-width="6.875" stroke-miterlimit="8" fill="none" fill-rule="evenodd"/><path d="M123.5 1333.33C123.5 1320.17 134.171 1309.5 147.334 1309.5L513.666 1309.5C526.829 1309.5 537.5 1320.17 537.5 1333.33L537.5 1428.67C537.5 1441.83 526.829 1452.5 513.666 1452.5L147.334 1452.5C134.171 1452.5 123.5 1441.83 123.5 1428.67Z" stroke="#000000" stroke-width="6.875" stroke-miterlimit="8" fill="#FFFFFF" fill-rule="evenodd"/><text font-family="Calibri,Calibri_MSFontService,sans-serif" font-weight="400" font-size="55" transform="matrix(1 0 0 1 166.284 1365)">Open Banking</text><text font-family="Calibri,Calibri_MSFontService,sans-serif" font-weight="400" font-size="55" transform="matrix(1 0 0 1 477.378 1365)">-</text><text font-family="Calibri,Calibri_MSFontService,sans-serif" font-weight="400" font-size="55" transform="matrix(1 0 0 1 209.643 1431)">leverandør</text><path d="M3625.5 1231.33C3625.5 1201.05 3699.37 1176.5 3790.5 1176.5 3881.63 1176.5 3955.5 1201.05 3955.5 1231.33L3955.5 1450.67C3955.5 1480.95 3881.63 1505.5 3790.5 1505.5 3699.37 1505.5 3625.5 1480.95 3625.5 1450.67Z" fill="#FFFFFF" fill-rule="evenodd"/><path d="M3955.5 1231.33C3955.5 1261.62 3881.63 1286.17 3790.5 1286.17 3699.37 1286.17 3625.5 1261.62 3625.5 1231.33" stroke="#000000" stroke-width="6.875" stroke-miterlimit="8" fill="none" fill-rule="evenodd"/><path d="M3625.5 1231.33C3625.5 1201.05 3699.37 1176.5 3790.5 1176.5 3881.63 1176.5 3955.5 1201.05 3955.5 1231.33L3955.5 1450.67C3955.5 1480.95 3881.63 1505.5 3790.5 1505.5 3699.37 1505.5 3625.5 1480.95 3625.5 1450.67Z" stroke="#000000" stroke-width="6.875" stroke-miterlimit="8" fill="none" fill-rule="evenodd"/><path d="M3625.5 1352.67C3625.5 1345.95 3630.95 1340.5 3637.67 1340.5L3943.33 1340.5C3950.05 1340.5 3955.5 1345.95 3955.5 1352.67L3955.5 1401.33C3955.5 1408.05 3950.05 1413.5 3943.33 1413.5L3637.67 1413.5C3630.95 1413.5 3625.5 1408.05 3625.5 1401.33Z" stroke="#000000" stroke-width="6.875" stroke-miterlimit="8" fill="#FFFFFF" fill-rule="evenodd"/><text font-family="Calibri,Calibri_MSFontService,sans-serif" font-weight="400" font-size="55" transform="matrix(1 0 0 1 3671.48 1395)">FTP</text><text font-family="Calibri,Calibri_MSFontService,sans-serif" font-weight="400" font-size="55" transform="matrix(1 0 0 1 3752.26 1395)">-</text><text font-family="Calibri,Calibri_MSFontService,sans-serif" font-weight="400" font-size="55" transform="matrix(1 0 0 1 3768.87 1395)">server</text><rect x="2720" y="1596" width="69.9998" height="95.9999" fill="#FFFFFF"/><text font-family="Calibri,Calibri_MSFontService,sans-serif" font-weight="400" font-size="55" transform="matrix(1 0 0 1 2737.58 1660)">N</text><rect x="3177" y="1596" width="70.0002" height="95.9999" fill="#FFFFFF"/><text font-family="Calibri,Calibri_MSFontService,sans-serif" font-weight="400" font-size="55" transform="matrix(1 0 0 1 3202.69 1660)">J</text><path d="M2549.99 1310.39 2161.29 1307.98 2161.33 1301.1 2550.03 1303.52ZM2186.96 1323.71 2154.48 1304.5 2187.19 1285.69C2188.84 1284.75 2190.94 1285.31 2191.89 1286.96 2192.83 1288.6 2192.26 1290.71 2190.62 1291.65L2163.02 1307.52 2163.06 1301.58 2190.46 1317.8C2192.09 1318.76 2192.63 1320.87 2191.66 1322.5 2190.7 1324.14 2188.59 1324.68 2186.96 1323.71Z" fill="#7F7F7F"/><path d="M2550.5 1242C2550.5 1224.05 2565.05 1209.5 2583 1209.5L2913 1209.5C2930.95 1209.5 2945.5 1224.05 2945.5 1242L2945.5 1372C2945.5 1389.95 2930.95 1404.5 2913 1404.5L2583 1404.5C2565.05 1404.5 2550.5 1389.95 2550.5 1372Z" stroke="#FFFFFF" stroke-width="4.58333" stroke-miterlimit="8" fill="#00B0F0" fill-rule="evenodd"/><text fill="#FFFFFF" font-family="Calibri,Calibri_MSFontService,sans-serif" font-weight="400" font-size="55" transform="matrix(1 0 0 1 2703.05 1291)">Dan </text><text fill="#FFFFFF" font-family="Calibri,Calibri_MSFontService,sans-serif" font-weight="400" font-size="55" transform="matrix(1 0 0 1 2627.12 1357)">finansbilag</text><path d="M819.5 1523 916.5 1425.5 1013.5 1523 916.5 1620.5Z" stroke="#FFFFFF" stroke-width="4.58333" stroke-miterlimit="8" fill="#FFC000" fill-rule="evenodd"/><path d="M744.5 1563C744.5 1556.65 749.649 1551.5 756 1551.5L1077 1551.5C1083.35 1551.5 1088.5 1556.65 1088.5 1563L1088.5 1609C1088.5 1615.35 1083.35 1620.5 1077 1620.5L756 1620.5C749.649 1620.5 744.5 1615.35 744.5 1609Z" stroke="#FFFFFF" stroke-width="6.875" stroke-miterlimit="8" fill="#FFC000" fill-rule="evenodd"/><text fill="#FFFFFF" font-family="Calibri,Calibri_MSFontService,sans-serif" font-weight="400" font-size="55" transform="matrix(1 0 0 1 805.57 1603)">HTTP OK?</text><path d="M327.062 1176.93 327.062 1076.5C327.062 1074.6 328.601 1073.06 330.5 1073.06L706.194 1073.06 706.194 1079.94 330.5 1079.94 333.937 1076.5 333.937 1176.93ZM680.427 1057.49 713.017 1076.5 680.427 1095.51C678.787 1096.47 676.682 1095.91 675.726 1094.27 674.769 1092.63 675.323 1090.53 676.963 1089.57L704.463 1073.53 704.463 1079.47 676.963 1063.43C675.323 1062.47 674.769 1060.37 675.726 1058.73 676.682 1057.09 678.787 1056.53 680.427 1057.49Z" fill="#7F7F7F"/><path d="M710.5 1905C710.5 1887.05 725.051 1872.5 743.001 1872.5L1087 1872.5C1104.95 1872.5 1119.5 1887.05 1119.5 1905L1119.5 2035C1119.5 2052.95 1104.95 2067.5 1087 2067.5L743.001 2067.5C725.051 2067.5 710.5 2052.95 710.5 2035Z" stroke="#FFFFFF" stroke-width="4.58333" stroke-miterlimit="8" fill="#00B0F0" fill-rule="evenodd"/><text fill="#FFFFFF" font-family="Calibri,Calibri_MSFontService,sans-serif" font-weight="400" font-size="55" transform="matrix(1 0 0 1 860.841 1987)">Auth</text><path d="M3.43746-0.0170837 4.65593 245.155-2.21899 245.189-3.43746 0.0170837ZM20.1011 219.31 1.25238 251.994-17.9203 219.499C-18.885 217.864-18.3416 215.756-16.7065 214.792-15.0714 213.827-12.9638 214.37-11.9991 216.005L4.17907 243.425-1.75934 243.455 14.1455 215.875C15.0939 214.231 17.1959 213.667 18.8405 214.615 20.4851 215.563 21.0495 217.665 20.1011 219.31Z" fill="#7F7F7F" transform="matrix(-1 0 0 1 916.752 1620.5)"/><path d="M703.96 1973.62 330.5 1973.62C328.601 1973.62 327.062 1972.08 327.062 1970.19L327.062 1512.31 333.937 1512.31 333.937 1970.19 330.5 1966.75 703.96 1966.75ZM678.192 1951.17 710.782 1970.19 678.192 1989.2C676.552 1990.15 674.447 1989.6 673.491 1987.96 672.534 1986.32 673.088 1984.21 674.728 1983.26L702.228 1967.22 702.228 1973.15 674.728 1957.11C673.088 1956.16 672.534 1954.05 673.491 1952.41 674.447 1950.77 676.552 1950.22 678.192 1951.17ZM311.489 1538.07 330.5 1505.48 349.511 1538.07C350.467 1539.71 349.913 1541.82 348.274 1542.78 346.634 1543.73 344.529 1543.18 343.572 1541.54L327.531 1514.04 333.469 1514.04 317.427 1541.54C316.471 1543.18 314.366 1543.73 312.726 1542.78 311.086 1541.82 310.532 1539.71 311.489 1538.07Z" fill="#7F7F7F"/><path d="M1119.19 1966.05 1201.69 1966.05 1198.25 1969.49 1198.25 1326.69 1201.69 1330.13 1036.5 1330.13C1034.6 1330.13 1033.06 1328.59 1033.06 1326.69L1033.06 1182.31 1039.94 1182.31 1039.94 1326.69 1036.5 1323.25 1201.69 1323.25C1203.59 1323.25 1205.13 1324.79 1205.13 1326.69L1205.13 1969.49C1205.13 1971.39 1203.59 1972.93 1201.69 1972.93L1119.19 1972.93ZM1017.49 1208.07 1036.5 1175.48 1055.51 1208.07C1056.47 1209.71 1055.91 1211.82 1054.27 1212.78 1052.63 1213.73 1050.53 1213.18 1049.57 1211.54L1033.53 1184.04 1039.47 1184.04 1023.43 1211.54C1022.47 1213.18 1020.37 1213.73 1018.73 1212.78 1017.09 1211.82 1016.53 1209.71 1017.49 1208.07Z" fill="#7F7F7F"/><path d="M1566.57 1331.79 1685.74 1331.79 1682.3 1335.22 1682.3 896 1685.74 899.438 917.5 899.438 920.938 896 920.938 971.694 914.062 971.694 914.062 896C914.062 894.102 915.602 892.563 917.5 892.563L1685.74 892.563C1687.64 892.563 1689.18 894.102 1689.18 896L1689.18 1335.22C1689.18 1337.12 1687.64 1338.66 1685.74 1338.66L1566.57 1338.66ZM936.511 945.926 917.5 978.516 898.489 945.926C897.532 944.286 898.086 942.181 899.726 941.225 901.366 940.268 903.471 940.822 904.428 942.462L920.469 969.962 914.531 969.962 930.572 942.462C931.529 940.822 933.634 940.268 935.274 941.225 936.914 942.181 937.467 944.286 936.511 945.926Z" fill="#7F7F7F"/><path d="M1566.57 1072.45 1685.74 1072.45 1682.3 1075.89 1682.3 895.951 1685.74 899.389 917.5 899.389 920.938 895.951 920.938 971.694 914.062 971.694 914.062 895.951C914.062 894.053 915.602 892.514 917.5 892.514L1685.74 892.514C1687.64 892.514 1689.18 894.053 1689.18 895.951L1689.18 1075.89C1689.18 1077.79 1687.64 1079.33 1685.74 1079.33L1566.57 1079.33ZM936.511 945.926 917.5 978.516 898.489 945.926C897.532 944.286 898.086 942.181 899.726 941.225 901.366 940.268 903.471 940.822 904.428 942.462L920.469 969.962 914.531 969.962 930.572 942.462C931.529 940.822 933.634 940.268 935.274 941.225 936.914 942.181 937.467 944.286 936.511 945.926Z" fill="#7F7F7F"/><path d="M0.000680096-3.4375 243.097-3.3894 243.096 3.4856-0.000680096 3.4375ZM217.332-18.9679 249.918 0.0494463 217.324 19.0539C215.684 20.0102 213.58 19.4558 212.623 17.8158 211.667 16.1757 212.222 14.071 213.862 13.1147L241.365-2.92149 241.364 3.01699 213.867-13.0301C212.227-13.987 211.674-16.092 212.63-17.7317 213.587-19.3713 215.692-19.9248 217.332-18.9679Z" fill="#7F7F7F" transform="matrix(1 0 0 -1 1121.5 1076.55)"/><path d="M0 0 209.568 0 209.568 1072.24 161.444 1072.24" stroke="#7F7F7F" stroke-width="6.875" stroke-miterlimit="8" stroke-dasharray="27.5 20.625" fill="none" fill-rule="evenodd" transform="matrix(-1.83697e-16 -1 -1 1.83697e-16 1989.74 1139.94)"/><path d="M0 0 91.6089 0 91.6089 93.705 183.218 93.705" stroke="#7F7F7F" stroke-width="6.875" stroke-miterlimit="8" stroke-dasharray="27.5 20.625" fill="none" fill-rule="evenodd" transform="matrix(1 0 0 -1 1641.5 1398.21)"/><path d="M1990.1 1468.5 1990.1 1750.55 1469.5 1750.55 1469.5 1872.17" stroke="#7F7F7F" stroke-width="6.875" stroke-miterlimit="8" stroke-dasharray="27.5 20.625" fill="none" fill-rule="evenodd"/><path d="M3399.5 1302.06 3471.13 1302.06C3473.03 1302.06 3474.56 1303.6 3474.56 1305.5L3474.56 1341.13 3471.13 1337.7 3618.45 1337.7 3618.45 1344.57 3471.13 1344.57C3469.23 1344.57 3467.69 1343.03 3467.69 1341.13L3467.69 1305.5 3471.13 1308.94 3399.5 1308.94ZM3592.68 1322.12 3625.27 1341.13 3592.68 1360.14C3591.04 1361.1 3588.94 1360.55 3587.98 1358.91 3587.02 1357.27 3587.58 1355.16 3589.22 1354.21L3616.72 1338.16 3616.72 1344.1 3589.22 1328.06C3587.58 1327.1 3587.02 1325 3587.98 1323.36 3588.94 1321.72 3591.04 1321.17 3592.68 1322.12Z" fill="#7F7F7F"/><rect x="1650" y="1161" width="70.0001" height="95.0002" fill="#FFFFFF"/><text font-family="Calibri,Calibri_MSFontService,sans-serif" font-weight="400" font-size="55" transform="matrix(1 0 0 1 1663.31 1225)">Ja</text><rect x="1651" y="941" width="70.0001" height="96.0003" fill="#FFFFFF"/><text font-family="Calibri,Calibri_MSFontService,sans-serif" font-weight="400" font-size="55" transform="matrix(1 0 0 1 1664.26 1005)">Ja</text></g></svg>
