<svg width="3527" height="1930" xmlns="http://www.w3.org/2000/svg" xmlns:xlink="http://www.w3.org/1999/xlink" xml:space="preserve" overflow="hidden"><g transform="translate(-438 -196)"><path d="M595.5 666.448C595.5 631.683 623.683 603.5 658.448 603.5L3462.55 603.5C3497.32 603.5 3525.5 631.683 3525.5 666.448L3525.5 2059.55C3525.5 2094.32 3497.32 2122.5 3462.55 2122.5L658.448 2122.5C623.683 2122.5 595.5 2094.32 595.5 2059.55Z" stroke="#000000" stroke-width="6.875" stroke-miterlimit="8" stroke-dasharray="27.5 20.625" fill="none" fill-rule="evenodd"/><path d="M1826.5 483.333C1826.5 453.05 1900.37 428.5 1991.5 428.5 2082.63 428.5 2156.5 453.05 2156.5 483.333L2156.5 702.667C2156.5 732.95 2082.63 757.5 1991.5 757.5 1900.37 757.5 1826.5 732.95 1826.5 702.667Z" fill-rule="evenodd"/><path d="M2156.5 483.333C2156.5 513.617 2082.63 538.167 1991.5 538.167 1900.37 538.167 1826.5 513.617 1826.5 483.333" stroke="#FFFFFF" stroke-width="6.875" stroke-miterlimit="8" fill="none" fill-rule="evenodd"/><path d="M1826.5 483.333C1826.5 453.05 1900.37 428.5 1991.5 428.5 2082.63 428.5 2156.5 453.05 2156.5 483.333L2156.5 702.667C2156.5 732.95 2082.63 757.5 1991.5 757.5 1900.37 757.5 1826.5 732.95 1826.5 702.667Z" stroke="#FFFFFF" stroke-width="6.875" stroke-miterlimit="8" fill="none" fill-rule="evenodd"/><path d="M1874.5 599.167C1874.5 592.171 1880.17 586.5 1887.17 586.5L2094.83 586.5C2101.83 586.5 2107.5 592.171 2107.5 599.167L2107.5 649.833C2107.5 656.829 2101.83 662.5 2094.83 662.5L1887.17 662.5C1880.17 662.5 1874.5 656.829 1874.5 649.833Z" stroke="#FFFFFF" stroke-width="6.875" stroke-miterlimit="8" fill-rule="evenodd"/><text fill="#FFFFFF" font-family="Calibri,Calibri_MSFontService,sans-serif" font-weight="400" font-size="55" transform="matrix(1 0 0 1 1919.23 642)">Server</text><rect x="506" y="518" width="179" height="204" fill="#FFFFFF"/><text fill="#FF0000" font-family="Cambria Math,Cambria Math_MSFontService,sans-serif" font-weight="700" font-size="147" transform="matrix(1 0 0 1 526.865 670)">⟳</text><path d="M713.5 760.001C713.5 742.051 728.051 727.5 746.001 727.5L1039 727.5C1056.95 727.5 1071.5 742.051 1071.5 760.001L1071.5 889.999C1071.5 907.949 1056.95 922.5 1039 922.5L746.001 922.5C728.051 922.5 713.5 907.949 713.5 889.999Z" stroke="#FFFFFF" stroke-width="4.58333" stroke-miterlimit="8" fill="#00B0F0" fill-rule="evenodd"/><text fill="#FFFFFF" font-family="Calibri,Calibri_MSFontService,sans-serif" font-weight="400" font-size="55" transform="matrix(1 0 0 1 756.635 776)">Sæ</text><text fill="#FFFFFF" font-family="Calibri,Calibri_MSFontService,sans-serif" font-weight="400" font-size="55" transform="matrix(1 0 0 1 823.941 776)">t</text><text fill="#FFFFFF" font-family="Calibri,Calibri_MSFontService,sans-serif" font-weight="400" font-size="55" transform="matrix(1 0 0 1 854.879 776)">seneste </text><text fill="#FFFFFF" font-family="Calibri,Calibri_MSFontService,sans-serif" font-weight="400" font-size="55" transform="matrix(1 0 0 1 804.875 842)">lukkede </text><text fill="#FFFFFF" font-family="Calibri,Calibri_MSFontService,sans-serif" font-weight="400" font-size="55" transform="matrix(1 0 0 1 797.587 908)">bankdag</text><path d="M2035.5 1159.17C2035.5 1128.98 2109.37 1104.5 2200.5 1104.5 2291.63 1104.5 2365.5 1128.98 2365.5 1159.17L2365.5 1377.83C2365.5 1408.02 2291.63 1432.5 2200.5 1432.5 2109.37 1432.5 2035.5 1408.02 2035.5 1377.83Z" fill-rule="evenodd"/><path d="M2365.5 1159.17C2365.5 1189.36 2291.63 1213.83 2200.5 1213.83 2109.37 1213.83 2035.5 1189.36 2035.5 1159.17" stroke="#FFFFFF" stroke-width="6.875" stroke-miterlimit="8" fill="none" fill-rule="evenodd"/><path d="M2035.5 1159.17C2035.5 1128.98 2109.37 1104.5 2200.5 1104.5 2291.63 1104.5 2365.5 1128.98 2365.5 1159.17L2365.5 1377.83C2365.5 1408.02 2291.63 1432.5 2200.5 1432.5 2109.37 1432.5 2035.5 1408.02 2035.5 1377.83Z" stroke="#FFFFFF" stroke-width="6.875" stroke-miterlimit="8" fill="none" fill-rule="evenodd"/><path d="M2128.5 1281.17C2128.5 1274.17 2134.17 1268.5 2141.17 1268.5L2259.83 1268.5C2266.83 1268.5 2272.5 1274.17 2272.5 1281.17L2272.5 1331.83C2272.5 1338.83 2266.83 1344.5 2259.83 1344.5L2141.17 1344.5C2134.17 1344.5 2128.5 1338.83 2128.5 1331.83Z" stroke="#FFFFFF" stroke-width="6.875" stroke-miterlimit="8" fill-rule="evenodd"/><text fill="#FFFFFF" font-family="Calibri,Calibri_MSFontService,sans-serif" font-weight="400" font-size="55" transform="matrix(1 0 0 1 2168.2 1324)">DB</text><path d="M1130.5 760.001C1130.5 742.051 1145.05 727.5 1163 727.5L1493 727.5C1510.95 727.5 1525.5 742.051 1525.5 760.001L1525.5 889.999C1525.5 907.949 1510.95 922.5 1493 922.5L1163 922.5C1145.05 922.5 1130.5 907.949 1130.5 889.999Z" stroke="#FFFFFF" stroke-width="4.58333" stroke-miterlimit="8" fill="#00B0F0" fill-rule="evenodd"/><text fill="#FFFFFF" font-family="Calibri,Calibri_MSFontService,sans-serif" font-weight="400" font-size="55" transform="matrix(1 0 0 1 1283.16 809)">GET </text><text fill="#FFFFFF" font-family="Calibri,Calibri_MSFontService,sans-serif" font-weight="400" font-size="55" transform="matrix(1 0 0 1 1177.86 875)">transaktioner</text><path d="M1071.5 821.063 1123.8 821.063 1123.8 827.938 1071.5 827.938ZM1098.04 805.489 1130.63 824.501 1098.04 843.511C1096.4 844.468 1094.29 843.914 1093.34 842.274 1092.38 840.634 1092.93 838.529 1094.57 837.573L1122.07 821.531 1122.07 827.47 1094.57 811.428C1092.93 810.471 1092.38 808.366 1093.34 806.727 1094.29 805.087 1096.4 804.533 1098.04 805.489Z"/><path d="M1331.94 518.5 1331.94 720.179 1325.06 720.179 1325.06 518.5ZM1347.51 694.411 1328.5 727.002 1309.49 694.411C1308.53 692.772 1309.09 690.667 1310.73 689.71 1312.37 688.754 1314.47 689.307 1315.43 690.947L1331.47 718.447 1325.53 718.447 1341.57 690.947C1342.53 689.307 1344.63 688.753 1346.27 689.71 1347.91 690.667 1348.47 692.771 1347.51 694.411Z"/><path d="M3.43742-0.0228343 3.99743 84.2791-2.87742 84.3248-3.43742 0.0228343ZM19.3993 58.4082 0.605323 91.1239-18.6217 58.6608C-19.5891 57.0273-19.0492 54.9189-17.4157 53.9514-15.7823 52.9839-13.6738 53.5239-12.7063 55.1573L3.51767 82.5502-2.42068 82.5896 13.438 54.9837C14.3836 53.3375 16.4848 52.7696 18.1309 53.7153 19.7771 54.661 20.345 56.7621 19.3993 58.4082Z" transform="matrix(-1 0 0 1 1328.11 922.5)"/><path d="M0-3.4375 183.421-3.4375C185.319-3.4375 186.858-1.89848 186.858 0L186.858 285.99C186.858 287.888 185.319 289.427 183.421 289.427L107.727 289.427 107.727 282.552 183.421 282.552 179.983 285.99 179.983 0 183.421 3.4375 0 3.4375ZM133.495 305.001 100.904 285.99 133.495 266.979C135.134 266.022 137.239 266.576 138.196 268.216 139.152 269.856 138.598 271.961 136.959 272.917L109.459 288.959 109.459 283.021 136.959 299.062C138.598 300.019 139.152 302.124 138.196 303.764 137.239 305.404 135.134 305.957 133.495 305.001Z" transform="matrix(1 0 0 -1 1424.5 1110.49)"/><path d="M1330.94 1208.5 1330.94 1414.44 1324.06 1414.44 1324.06 1208.5ZM1346.51 1388.67 1327.5 1421.26 1308.49 1388.67C1307.53 1387.03 1308.09 1384.93 1309.73 1383.97 1311.37 1383.01 1313.47 1383.57 1314.43 1385.21L1330.47 1412.71 1324.53 1412.71 1340.57 1385.21C1341.53 1383.57 1343.63 1383.01 1345.27 1383.97 1346.91 1384.93 1347.47 1387.03 1346.51 1388.67Z"/><path d="M0-3.4375 183.421-3.4375C185.319-3.4375 186.858-1.89848 186.858 0L186.858 693.617C186.858 695.516 185.319 697.055 183.421 697.055L107.727 697.055 107.727 690.18 183.421 690.18 179.983 693.617 179.983 0 183.421 3.4375 0 3.4375ZM133.495 712.628 100.904 693.617 133.495 674.607C135.134 673.65 137.239 674.204 138.196 675.844 139.152 677.484 138.598 679.588 136.959 680.545L109.459 696.587 109.459 690.648 136.959 706.69C138.598 707.646 139.152 709.751 138.196 711.391 137.239 713.031 135.134 713.585 133.495 712.628Z" transform="matrix(1 0 0 -1 1424.5 1518.12)"/><rect x="1474" y="1062" width="70.0001" height="96.0002" fill="#FFFFFF"/><text font-family="Calibri,Calibri_MSFontService,sans-serif" font-weight="400" font-size="55" transform="matrix(1 0 0 1 1499.85 1126)">J</text><path d="M1230.5 1111 1327.5 1013.5 1424.5 1111 1327.5 1208.5Z" stroke="#FFFFFF" stroke-width="4.58333" stroke-miterlimit="8" fill="#FFC000" fill-rule="evenodd"/><path d="M1155.5 1150.17C1155.5 1143.72 1160.72 1138.5 1167.17 1138.5L1487.83 1138.5C1494.28 1138.5 1499.5 1143.72 1499.5 1150.17L1499.5 1196.83C1499.5 1203.28 1494.28 1208.5 1487.83 1208.5L1167.17 1208.5C1160.72 1208.5 1155.5 1203.28 1155.5 1196.83Z" stroke="#FFFFFF" stroke-width="6.875" stroke-miterlimit="8" fill="#FFC000" fill-rule="evenodd"/><text fill="#FFFFFF" font-family="Calibri,Calibri_MSFontService,sans-serif" font-weight="400" font-size="55" transform="matrix(1 0 0 1 1197.83 1191)">Flere sider?</text><rect x="1472" y="1472" width="70.0001" height="95.9999" fill="#FFFFFF"/><text font-family="Calibri,Calibri_MSFontService,sans-serif" font-weight="400" font-size="55" transform="matrix(1 0 0 1 1498.33 1536)">J </text><path d="M1230.5 1518.5 1327.5 1421.5 1424.5 1518.5 1327.5 1615.5Z" stroke="#FFFFFF" stroke-width="4.58333" stroke-miterlimit="8" fill="#FFC000" fill-rule="evenodd"/><path d="M1155.5 1558C1155.5 1551.65 1160.65 1546.5 1167 1546.5L1488 1546.5C1494.35 1546.5 1499.5 1551.65 1499.5 1558L1499.5 1604C1499.5 1610.35 1494.35 1615.5 1488 1615.5L1167 1615.5C1160.65 1615.5 1155.5 1610.35 1155.5 1604Z" stroke="#FFFFFF" stroke-width="6.875" stroke-miterlimit="8" fill="#FFC000" fill-rule="evenodd"/><text fill="#FFFFFF" font-family="Calibri,Calibri_MSFontService,sans-serif" font-weight="400" font-size="55" transform="matrix(1 0 0 1 1196.72 1599)">Flere konti?</text><rect x="1290" y="1268" width="69.9998" height="94.9999" fill="#FFFFFF"/><text font-family="Calibri,Calibri_MSFontService,sans-serif" font-weight="400" font-size="55" transform="matrix(1 0 0 1 1307.45 1332)">N</text><path d="M1127.5 1861C1127.5 1843.05 1142.05 1828.5 1160 1828.5L1491 1828.5C1508.95 1828.5 1523.5 1843.05 1523.5 1861L1523.5 1991C1523.5 2008.95 1508.95 2023.5 1491 2023.5L1160 2023.5C1142.05 2023.5 1127.5 2008.95 1127.5 1991Z" stroke="#FFFFFF" stroke-width="4.58333" stroke-miterlimit="8" fill="#00B0F0" fill-rule="evenodd"/><text fill="#FFFFFF" font-family="Calibri,Calibri_MSFontService,sans-serif" font-weight="400" font-size="55" transform="matrix(1 0 0 1 1250.64 1911)">Kontér </text><text fill="#FFFFFF" font-family="Calibri,Calibri_MSFontService,sans-serif" font-weight="400" font-size="55" transform="matrix(1 0 0 1 1175.52 1977)">transaktioner</text><path d="M3.43739-0.0279948 5.1146 205.911-1.76017 205.967-3.43739 0.0279948ZM20.4776 180.018 1.73277 212.762-17.5429 180.327C-18.5128 178.695-17.9761 176.586-16.3441 175.616-14.712 174.646-12.6028 175.183-11.6328 176.815L4.63225 204.184-1.30603 204.232 14.5111 176.602C15.4543 174.955 17.5546 174.383 19.2022 175.327 20.8498 176.27 21.4208 178.37 20.4776 180.018Z" transform="matrix(-1 0 0 1 1327.23 1615.5)"/><rect x="1290" y="1673" width="69.9998" height="94.9999" fill="#FFFFFF"/><text font-family="Calibri,Calibri_MSFontService,sans-serif" font-weight="400" font-size="55" transform="matrix(1 0 0 1 1307.45 1737)">N</text><path d="M1525.5 824.5 1814.72 824.5 1814.72 1267.96 2035.2 1267.96" stroke="#000000" stroke-width="6.875" stroke-miterlimit="8" stroke-dasharray="27.5 20.625" fill="none" fill-rule="evenodd"/><path d="M0 0 390.099 0 390.099 250.161 610.617 250.161" stroke="#000000" stroke-width="6.875" stroke-miterlimit="8" stroke-dasharray="27.5 20.625" fill="none" fill-rule="evenodd" transform="matrix(1 0 0 -1 1424.5 1518.66)"/><path d="M1325.5 1828.55 1325.5 1763.44 2200.29 1763.44 2200.29 1432.5" stroke="#000000" stroke-width="6.875" stroke-miterlimit="8" stroke-dasharray="27.5 20.625" fill="none" fill-rule="evenodd"/><path d="M656.845 669.986 710.979 720.488 706.289 725.515 652.155 675.013ZM702.761 691.523 713.623 727.655 676.824 719.325C674.972 718.906 673.811 717.065 674.23 715.214 674.649 713.362 676.49 712.201 678.342 712.62L709.393 719.649 705.342 723.991 696.177 693.502C695.63 691.684 696.661 689.767 698.479 689.221 700.297 688.674 702.214 689.705 702.761 691.523Z"/><path d="M1721.5 1926 1819 1828.5 1916.5 1926 1819 2023.5Z" stroke="#FFFFFF" stroke-width="4.58333" stroke-miterlimit="8" fill="#FFC000" fill-rule="evenodd"/><path d="M1646.5 1966C1646.5 1959.65 1651.65 1954.5 1658 1954.5L1980 1954.5C1986.35 1954.5 1991.5 1959.65 1991.5 1966L1991.5 2012C1991.5 2018.35 1986.35 2023.5 1980 2023.5L1658 2023.5C1651.65 2023.5 1646.5 2018.35 1646.5 2012Z" stroke="#FFFFFF" stroke-width="6.875" stroke-miterlimit="8" fill="#FFC000" fill-rule="evenodd"/><text fill="#FFFFFF" font-family="Calibri,Calibri_MSFontService,sans-serif" font-weight="400" font-size="55" transform="matrix(1 0 0 1 1774.62 2006)">ØS?</text><path d="M1523.5 1923.06 1714.45 1923.06 1714.45 1929.94 1523.5 1929.94ZM1688.68 1907.49 1721.27 1926.5 1688.68 1945.51C1687.04 1946.47 1684.94 1945.91 1683.98 1944.27 1683.02 1942.63 1683.58 1940.53 1685.22 1939.57L1712.72 1923.53 1712.72 1929.47 1685.22 1913.43C1683.58 1912.47 1683.02 1910.37 1683.98 1908.73 1684.94 1907.09 1687.04 1906.53 1688.68 1907.49Z"/><path d="M1818.5 1828.55 1818.5 1763.44 2200.34 1763.44 2200.34 1432.5" stroke="#000000" stroke-width="6.875" stroke-miterlimit="8" stroke-dasharray="27.5 20.625" fill="none" fill-rule="evenodd"/><path d="M2189.5 1926 2287 1828.5 2384.5 1926 2287 2023.5Z" stroke="#FFFFFF" stroke-width="4.58333" stroke-miterlimit="8" fill="#FFC000" fill-rule="evenodd"/><path d="M2115.5 1966C2115.5 1959.65 2120.65 1954.5 2127 1954.5L2448 1954.5C2454.35 1954.5 2459.5 1959.65 2459.5 1966L2459.5 2012C2459.5 2018.35 2454.35 2023.5 2448 2023.5L2127 2023.5C2120.65 2023.5 2115.5 2018.35 2115.5 2012Z" stroke="#FFFFFF" stroke-width="6.875" stroke-miterlimit="8" fill="#FFC000" fill-rule="evenodd"/><text fill="#FFFFFF" font-family="Calibri,Calibri_MSFontService,sans-serif" font-weight="400" font-size="55" transform="matrix(1 0 0 1 2151.61 2006)">Integration</text><text fill="#FFFFFF" font-family="Calibri,Calibri_MSFontService,sans-serif" font-weight="400" font-size="55" transform="matrix(1 0 0 1 2396.96 2006)">?</text><path d="M1916.5 1923.06 2183.54 1923.06 2183.54 1929.94 1916.5 1929.94ZM2157.77 1907.49 2190.36 1926.5 2157.77 1945.51C2156.13 1946.47 2154.02 1945.91 2153.07 1944.27 2152.11 1942.63 2152.67 1940.53 2154.31 1939.57L2181.81 1923.53 2181.81 1929.47 2154.31 1913.43C2152.67 1912.47 2152.11 1910.37 2153.07 1908.73 2154.03 1907.09 2156.13 1906.53 2157.77 1907.49Z"/><path d="M0 0 65.1059 0 65.1059 86.8885 396.046 86.8885" stroke="#000000" stroke-width="6.875" stroke-miterlimit="8" stroke-dasharray="27.5 20.625" fill="none" fill-rule="evenodd" transform="matrix(-1.83697e-16 -1 -1 1.83697e-16 2287.39 1828.55)"/><path d="M3014.5 1203C3014.5 1185.05 3029.05 1170.5 3047 1170.5L3377 1170.5C3394.95 1170.5 3409.5 1185.05 3409.5 1203L3409.5 1333C3409.5 1350.95 3394.95 1365.5 3377 1365.5L3047 1365.5C3029.05 1365.5 3014.5 1350.95 3014.5 1333Z" stroke="#FFFFFF" stroke-width="4.58333" stroke-miterlimit="8" fill="#00B0F0" fill-rule="evenodd"/><text fill="#FFFFFF" font-family="Calibri,Calibri_MSFontService,sans-serif" font-weight="400" font-size="55" transform="matrix(1 0 0 1 3131.08 1286)">Gem fil</text><path d="M0-3.4375 371.012-3.4375C372.91-3.4375 374.449-1.89848 374.449 0L374.449 553.846 367.574 553.846 367.574 0 371.012 3.4375 0 3.4375ZM390.023 528.079 371.012 560.669 352.001 528.079C351.044 526.439 351.598 524.334 353.238 523.378 354.878 522.421 356.983 522.975 357.939 524.615L373.981 552.115 368.043 552.115 384.084 524.615C385.041 522.975 387.146 522.421 388.786 523.378 390.425 524.334 390.979 526.439 390.023 528.079Z" transform="matrix(1 0 0 -1 2384.5 1926.15)"/><path d="M0-3.4375 827.243-3.4375C829.141-3.4375 830.68-1.89848 830.68 0L830.68 553.846 823.805 553.846 823.805 0 827.243 3.4375 0 3.4375ZM846.253 528.079 827.243 560.669 808.232 528.079C807.275 526.439 807.829 524.334 809.469 523.378 811.109 522.421 813.214 522.975 814.17 524.615L830.212 552.115 824.273 552.115 840.315 524.615C841.272 522.975 843.376 522.421 845.016 523.378 846.656 524.334 847.21 526.439 846.253 528.079Z" transform="matrix(1 0 0 -1 2384.5 1926.15)"/><path d="M3409.5 1265.06 3624.03 1265.06 3624.03 1271.94 3409.5 1271.94ZM3598.26 1249.49 3630.85 1268.5 3598.26 1287.51C3596.62 1288.47 3594.52 1287.91 3593.56 1286.27 3592.6 1284.63 3593.16 1282.53 3594.8 1281.57L3622.3 1265.53 3622.3 1271.47 3594.8 1255.43C3593.16 1254.47 3592.6 1252.37 3593.56 1250.73 3594.52 1249.09 3596.62 1248.53 3598.26 1249.49Z"/><path d="M1160.5 254.333C1160.5 224.05 1234.37 199.5 1325.5 199.5 1416.63 199.5 1490.5 224.05 1490.5 254.333L1490.5 473.667C1490.5 503.95 1416.63 528.5 1325.5 528.5 1234.37 528.5 1160.5 503.95 1160.5 473.667Z" fill="#FFFFFF" fill-rule="evenodd"/><path d="M1490.5 254.333C1490.5 284.617 1416.63 309.167 1325.5 309.167 1234.37 309.167 1160.5 284.617 1160.5 254.333" stroke="#000000" stroke-width="6.875" stroke-miterlimit="8" fill="none" fill-rule="evenodd"/><path d="M1160.5 254.333C1160.5 224.05 1234.37 199.5 1325.5 199.5 1416.63 199.5 1490.5 224.05 1490.5 254.333L1490.5 473.667C1490.5 503.95 1416.63 528.5 1325.5 528.5 1234.37 528.5 1160.5 503.95 1160.5 473.667Z" stroke="#000000" stroke-width="6.875" stroke-miterlimit="8" fill="none" fill-rule="evenodd"/><path d="M1118.5 356.334C1118.5 343.171 1129.17 332.5 1142.33 332.5L1508.67 332.5C1521.83 332.5 1532.5 343.171 1532.5 356.334L1532.5 451.666C1532.5 464.829 1521.83 475.5 1508.67 475.5L1142.33 475.5C1129.17 475.5 1118.5 464.829 1118.5 451.666Z" stroke="#000000" stroke-width="6.875" stroke-miterlimit="8" fill="#FFFFFF" fill-rule="evenodd"/><text font-family="Calibri,Calibri_MSFontService,sans-serif" font-weight="400" font-size="55" transform="matrix(1 0 0 1 1161.35 389)">Open Banking</text><text font-family="Calibri,Calibri_MSFontService,sans-serif" font-weight="400" font-size="55" transform="matrix(1 0 0 1 1472.45 389)">-</text><text font-family="Calibri,Calibri_MSFontService,sans-serif" font-weight="400" font-size="55" transform="matrix(1 0 0 1 1204.71 455)">leverandør</text><path d="M3631.5 1158.33C3631.5 1128.05 3705.37 1103.5 3796.5 1103.5 3887.63 1103.5 3961.5 1128.05 3961.5 1158.33L3961.5 1377.67C3961.5 1407.95 3887.63 1432.5 3796.5 1432.5 3705.37 1432.5 3631.5 1407.95 3631.5 1377.67Z" fill="#FFFFFF" fill-rule="evenodd"/><path d="M3961.5 1158.33C3961.5 1188.62 3887.63 1213.17 3796.5 1213.17 3705.37 1213.17 3631.5 1188.62 3631.5 1158.33" stroke="#000000" stroke-width="6.875" stroke-miterlimit="8" fill="none" fill-rule="evenodd"/><path d="M3631.5 1158.33C3631.5 1128.05 3705.37 1103.5 3796.5 1103.5 3887.63 1103.5 3961.5 1128.05 3961.5 1158.33L3961.5 1377.67C3961.5 1407.95 3887.63 1432.5 3796.5 1432.5 3705.37 1432.5 3631.5 1407.95 3631.5 1377.67Z" stroke="#000000" stroke-width="6.875" stroke-miterlimit="8" fill="none" fill-rule="evenodd"/><path d="M3631.5 1280.5C3631.5 1273.87 3636.87 1268.5 3643.5 1268.5L3949.5 1268.5C3956.13 1268.5 3961.5 1273.87 3961.5 1280.5L3961.5 1328.5C3961.5 1335.13 3956.13 1340.5 3949.5 1340.5L3643.5 1340.5C3636.87 1340.5 3631.5 1335.13 3631.5 1328.5Z" stroke="#000000" stroke-width="6.875" stroke-miterlimit="8" fill="#FFFFFF" fill-rule="evenodd"/><text font-family="Calibri,Calibri_MSFontService,sans-serif" font-weight="400" font-size="55" transform="matrix(1 0 0 1 3677.37 1322)">FTP</text><text font-family="Calibri,Calibri_MSFontService,sans-serif" font-weight="400" font-size="55" transform="matrix(1 0 0 1 3758.15 1322)">-</text><text font-family="Calibri,Calibri_MSFontService,sans-serif" font-weight="400" font-size="55" transform="matrix(1 0 0 1 3774.76 1322)">server</text><rect x="2720" y="1384" width="69.9998" height="95.9999" fill="#FFFFFF"/><text font-family="Calibri,Calibri_MSFontService,sans-serif" font-weight="400" font-size="55" transform="matrix(1 0 0 1 2737.58 1448)">N</text><rect x="3171" y="1384" width="69.9998" height="95.9999" fill="#FFFFFF"/><text font-family="Calibri,Calibri_MSFontService,sans-serif" font-weight="400" font-size="55" transform="matrix(1 0 0 1 3197.52 1448)">J</text><path d="M0.00544965-3.4375 185.784-3.14297 185.773 3.73202-0.00544965 3.4375ZM160.041-18.7572 192.601 0.30534 159.981 19.2646C158.339 20.2185 156.235 19.6613 155.281 18.0199 154.327 16.3785 154.884 14.2746 156.526 13.3206L184.051-2.67746 184.042 3.26102 156.567-12.8242C154.929-13.7834 154.378-15.8891 155.338-17.5275 156.297-19.1658 158.402-19.7164 160.041-18.7572Z" transform="matrix(-1 0 0 1 2558.08 1268.5)"/><path d="M0.00161759-3.4375 642.018-3.13538 642.015 3.73962-0.00161759 3.4375ZM616.25-18.7209 648.831 0.305321 616.232 19.3009C614.592 20.2567 612.488 19.7018 611.532 18.0615 610.576 16.4212 611.131 14.3166 612.771 13.3608L640.279-2.66794 640.276 3.27054 612.783-12.7841C611.144-13.7414 610.591-15.8465 611.548-17.4859 612.506-19.1254 614.611-19.6783 616.25-18.7209Z" transform="matrix(-1 0 0 1 3014.32 1268.5)"/><path d="M2558.5 1203C2558.5 1185.05 2573.05 1170.5 2591 1170.5L2921 1170.5C2938.95 1170.5 2953.5 1185.05 2953.5 1203L2953.5 1333C2953.5 1350.95 2938.95 1365.5 2921 1365.5L2591 1365.5C2573.05 1365.5 2558.5 1350.95 2558.5 1333Z" stroke="#FFFFFF" stroke-width="4.58333" stroke-miterlimit="8" fill="#00B0F0" fill-rule="evenodd"/><text fill="#FFFFFF" font-family="Calibri,Calibri_MSFontService,sans-serif" font-weight="400" font-size="55" transform="matrix(1 0 0 1 2710.95 1253)">Dan </text><text fill="#FFFFFF" font-family="Calibri,Calibri_MSFontService,sans-serif" font-weight="400" font-size="55" transform="matrix(1 0 0 1 2635.03 1319)">finansbilag</text></g></svg>