<svg width="1805" height="879" xmlns="http://www.w3.org/2000/svg" xmlns:xlink="http://www.w3.org/1999/xlink" xml:space="preserve" overflow="hidden"><g transform="translate(-69 -52)"><path d="M113.5 385.167C113.5 354.975 187.373 330.5 278.5 330.5 369.627 330.5 443.5 354.975 443.5 385.167L443.5 603.833C443.5 634.025 369.627 658.5 278.5 658.5 187.373 658.5 113.5 634.025 113.5 603.833Z" fill="#FFFFFF" fill-rule="evenodd"/><path d="M443.5 385.167C443.5 415.358 369.627 439.833 278.5 439.833 187.373 439.833 113.5 415.358 113.5 385.167" stroke="#000000" stroke-width="6.875" stroke-miterlimit="8" fill="none" fill-rule="evenodd"/><path d="M113.5 385.167C113.5 354.975 187.373 330.5 278.5 330.5 369.627 330.5 443.5 354.975 443.5 385.167L443.5 603.833C443.5 634.025 369.627 658.5 278.5 658.5 187.373 658.5 113.5 634.025 113.5 603.833Z" stroke="#000000" stroke-width="6.875" stroke-miterlimit="8" fill="none" fill-rule="evenodd"/><path d="M72.5 487.167C72.5 474.096 83.0961 463.5 96.1671 463.5L461.833 463.5C474.904 463.5 485.5 474.096 485.5 487.167L485.5 581.833C485.5 594.904 474.904 605.5 461.833 605.5L96.1671 605.5C83.0961 605.5 72.5 594.904 72.5 581.833Z" stroke="#000000" stroke-width="6.875" stroke-miterlimit="8" fill="#FFFFFF" fill-rule="evenodd"/><text font-family="Calibri,Calibri_MSFontService,sans-serif" font-weight="400" font-size="55" transform="matrix(1 0 0 1 114.603 519)">Open Banking</text><text font-family="Calibri,Calibri_MSFontService,sans-serif" font-weight="400" font-size="55" transform="matrix(1 0 0 1 425.697 519)">-</text><text font-family="Calibri,Calibri_MSFontService,sans-serif" font-weight="400" font-size="55" transform="matrix(1 0 0 1 157.962 585)">leverandør</text><path d="M709.5 110.333C709.5 80.0496 783.373 55.4998 874.5 55.4998 965.627 55.4998 1039.5 80.0496 1039.5 110.333L1039.5 329.667C1039.5 359.95 965.627 384.5 874.5 384.5 783.373 384.5 709.5 359.95 709.5 329.667Z" fill="#FFFFFF" fill-rule="evenodd"/><path d="M1039.5 110.333C1039.5 140.617 965.627 165.167 874.5 165.167 783.373 165.167 709.5 140.617 709.5 110.333" stroke="#000000" stroke-width="6.875" stroke-miterlimit="8" fill="none" fill-rule="evenodd"/><path d="M709.5 110.333C709.5 80.0496 783.373 55.4998 874.5 55.4998 965.627 55.4998 1039.5 80.0496 1039.5 110.333L1039.5 329.667C1039.5 359.95 965.627 384.5 874.5 384.5 783.373 384.5 709.5 359.95 709.5 329.667Z" stroke="#000000" stroke-width="6.875" stroke-miterlimit="8" fill="none" fill-rule="evenodd"/><path d="M709.5 232.667C709.5 225.947 714.947 220.5 721.667 220.5L1027.33 220.5C1034.05 220.5 1039.5 225.947 1039.5 232.667L1039.5 281.333C1039.5 288.053 1034.05 293.5 1027.33 293.5L721.667 293.5C714.947 293.5 709.5 288.053 709.5 281.333Z" stroke="#000000" stroke-width="6.875" stroke-miterlimit="8" fill="#FFFFFF" fill-rule="evenodd"/><text font-family="Calibri,Calibri_MSFontService,sans-serif" font-weight="400" font-size="55" transform="matrix(1 0 0 1 755.788 274)">FTP</text><text font-family="Calibri,Calibri_MSFontService,sans-serif" font-weight="400" font-size="55" transform="matrix(1 0 0 1 836.569 274)">-</text><text font-family="Calibri,Calibri_MSFontService,sans-serif" font-weight="400" font-size="55" transform="matrix(1 0 0 1 853.183 274)">server</text><path d="M1432.5 225.557C1432.5 222.764 1434.76 220.5 1437.56 220.5L1757.44 220.5C1760.24 220.5 1762.5 222.764 1762.5 225.557L1762.5 288.443C1762.5 291.236 1760.24 293.5 1757.44 293.5L1437.56 293.5C1434.76 293.5 1432.5 291.236 1432.5 288.443Z" stroke="#172C51" stroke-width="4.58333" stroke-miterlimit="8" fill-rule="evenodd"/><text fill="#FFFFFF" font-family="Calibri,Calibri_MSFontService,sans-serif" font-weight="400" font-size="55" transform="matrix(1 0 0 1 1522.05 274)">Bruger</text><path d="M0-3.4375 71.5278-3.4375C73.4263-3.4375 74.9653-1.89848 74.9653 0L74.9653 377.423 68.0903 377.423 68.0903 0 71.5278 3.4375 0 3.4375ZM90.5387 351.655 71.5278 384.245 52.5169 351.655C51.5603 350.015 52.1142 347.911 53.7541 346.954 55.3939 345.997 57.4988 346.551 58.4554 348.191L74.497 375.691 68.5585 375.691 84.6002 348.191C85.5568 346.551 87.6616 345.997 89.3015 346.954 90.9414 347.911 91.4953 350.015 90.5387 351.655Z" fill="#7F7F7F" transform="matrix(1.83697e-16 1 1 -1.83697e-16 326.5 658.5)"/><path d="M710.5 652.333C710.5 622.05 784.373 597.5 875.5 597.5 966.627 597.5 1040.5 622.05 1040.5 652.333L1040.5 871.667C1040.5 901.95 966.627 926.5 875.5 926.5 784.373 926.5 710.5 901.95 710.5 871.667Z" fill-rule="evenodd"/><path d="M1040.5 652.333C1040.5 682.617 966.627 707.167 875.5 707.167 784.373 707.167 710.5 682.617 710.5 652.333" stroke="#FFFFFF" stroke-width="6.875" stroke-miterlimit="8" fill="none" fill-rule="evenodd"/><path d="M710.5 652.333C710.5 622.05 784.373 597.5 875.5 597.5 966.627 597.5 1040.5 622.05 1040.5 652.333L1040.5 871.667C1040.5 901.95 966.627 926.5 875.5 926.5 784.373 926.5 710.5 901.95 710.5 871.667Z" stroke="#FFFFFF" stroke-width="6.875" stroke-miterlimit="8" fill="none" fill-rule="evenodd"/><path d="M758.5 768.167C758.5 761.171 764.171 755.5 771.167 755.5L978.833 755.5C985.829 755.5 991.5 761.171 991.5 768.167L991.5 818.833C991.5 825.829 985.829 831.5 978.833 831.5L771.167 831.5C764.171 831.5 758.5 825.829 758.5 818.833Z" stroke="#FFFFFF" stroke-width="6.875" stroke-miterlimit="8" fill-rule="evenodd"/><text fill="#FFFFFF" font-family="Calibri,Calibri_MSFontService,sans-serif" font-weight="400" font-size="55" transform="matrix(1 0 0 1 803.627 811)">Server</text><path d="M585.5 730C585.5 712.051 600.051 697.5 618 697.5 635.949 697.5 650.5 712.051 650.5 730 650.5 747.949 635.949 762.5 618 762.5 600.051 762.5 585.5 747.949 585.5 730Z" stroke="#000000" stroke-width="6.875" stroke-miterlimit="8" fill="#FFFFFF" fill-rule="evenodd"/><path d="M616.5 704.5 616.5 730.484" stroke="#000000" stroke-width="4.58333" stroke-miterlimit="8" fill="none" fill-rule="evenodd"/><path d="M630.228 717.452 616.448 731.232" stroke="#000000" stroke-width="4.58333" stroke-miterlimit="8" fill="none" fill-rule="evenodd"/><path d="M871.922 597.924 871.09 391.321 877.965 391.293 878.797 597.897ZM855.62 417.151 874.5 384.484 893.642 416.997C894.605 418.633 894.06 420.741 892.424 421.704 890.788 422.667 888.681 422.122 887.718 420.486L871.565 393.05 877.504 393.026 861.573 420.591C860.623 422.235 858.52 422.797 856.877 421.847 855.233 420.897 854.671 418.794 855.62 417.151Z" fill="#7F7F7F"/><path d="M1432.5 653.333C1432.5 623.05 1506.37 598.5 1597.5 598.5 1688.63 598.5 1762.5 623.05 1762.5 653.333L1762.5 872.667C1762.5 902.95 1688.63 927.5 1597.5 927.5 1506.37 927.5 1432.5 902.95 1432.5 872.667Z" fill-rule="evenodd"/><path d="M1762.5 653.333C1762.5 683.617 1688.63 708.167 1597.5 708.167 1506.37 708.167 1432.5 683.617 1432.5 653.333" stroke="#FFFFFF" stroke-width="6.875" stroke-miterlimit="8" fill="none" fill-rule="evenodd"/><path d="M1432.5 653.333C1432.5 623.05 1506.37 598.5 1597.5 598.5 1688.63 598.5 1762.5 623.05 1762.5 653.333L1762.5 872.667C1762.5 902.95 1688.63 927.5 1597.5 927.5 1506.37 927.5 1432.5 902.95 1432.5 872.667Z" stroke="#FFFFFF" stroke-width="6.875" stroke-miterlimit="8" fill="none" fill-rule="evenodd"/><path d="M1480.5 768.334C1480.5 761.246 1486.25 755.5 1493.33 755.5L1700.67 755.5C1707.75 755.5 1713.5 761.246 1713.5 768.334L1713.5 819.666C1713.5 826.754 1707.75 832.5 1700.67 832.5L1493.33 832.5C1486.25 832.5 1480.5 826.754 1480.5 819.666Z" stroke="#FFFFFF" stroke-width="6.875" stroke-miterlimit="8" fill-rule="evenodd"/><text fill="#FFFFFF" font-family="Calibri,Calibri_MSFontService,sans-serif" font-weight="400" font-size="55" transform="matrix(1 0 0 1 1532.39 812)">Client</text><path d="M842.5 507C842.5 489.051 857.051 474.5 875 474.5 892.949 474.5 907.5 489.051 907.5 507 907.5 524.949 892.949 539.5 875 539.5 857.051 539.5 842.5 524.949 842.5 507Z" stroke="#000000" stroke-width="6.875" stroke-miterlimit="8" fill="#FFFFFF" fill-rule="evenodd"/><path d="M873.5 480.5 873.5 506.484" stroke="#000000" stroke-width="4.58333" stroke-miterlimit="8" fill="none" fill-rule="evenodd"/><path d="M887.005 493.845 873.225 507.625" stroke="#000000" stroke-width="4.58333" stroke-miterlimit="8" fill="none" fill-rule="evenodd"/><path d="M1600.94 293.5 1600.94 592.165 1594.06 592.165 1594.06 293.5ZM1616.51 566.397 1597.5 598.987 1578.49 566.397C1577.53 564.757 1578.09 562.652 1579.73 561.695 1581.37 560.739 1583.47 561.293 1584.43 562.933L1600.47 590.433 1594.53 590.433 1610.57 562.933C1611.53 561.293 1613.63 560.739 1615.27 561.695 1616.91 562.652 1617.47 564.757 1616.51 566.397Z" fill="#7F7F7F"/><rect x="1335" y="399" width="522" height="91.9998" fill="#FFFFFF"/><text font-family="Calibri,Calibri_MSFontService,sans-serif" font-weight="400" font-size="55" transform="matrix(1 0 0 1 1350.84 463)">Ændr stamdata/regler</text><path d="M3.18287e-06-3.4375 382.957-3.43715 382.957 3.43785-3.18287e-06 3.4375ZM357.19-19.0106 389.78 0.00036071 357.19 19.0112C355.55 19.9678 353.445 19.4139 352.488 17.7741 351.532 16.1342 352.086 14.0293 353.725 13.0728L381.225-2.96889 381.225 2.96959 353.725-13.0721C352.086-14.0287 351.532-16.1335 352.488-17.7734 353.445-19.4133 355.55-19.9672 357.19-19.0106Z" fill="#7F7F7F" transform="matrix(-1 0 0 1 1429.26 819.5)"/><rect x="1158" y="772" width="159" height="92.9998" fill="#FFFFFF"/><text font-family="Calibri,Calibri_MSFontService,sans-serif" font-weight="400" font-size="55" transform="matrix(1 0 0 1 1178.74 836)">POST</text><path d="M6.80625-3.4375 162.764-3.4375C164.662-3.4375 166.201-1.89848 166.201 0L166.201 473.965 159.326 473.965 159.326 0 162.764 3.4375 6.80625 3.4375ZM32.5742 19.0109-0.0159314 0 32.5742-19.0109C34.2141-19.9675 36.3189-19.4136 37.2755-17.7737 38.2321-16.1339 37.6782-14.029 36.0383-13.0724L8.53831 2.96924 8.53831-2.96924 36.0383 13.0724C37.6782 14.029 38.2321 16.1339 37.2755 17.7737 36.3189 19.4136 34.2141 19.9675 32.5742 19.0109ZM181.774 448.197 162.764 480.787 143.753 448.197C142.796 446.557 143.35 444.453 144.99 443.496 146.63 442.539 148.735 443.093 149.691 444.733L165.733 472.233 159.794 472.233 175.836 444.733C176.793 443.093 178.897 442.539 180.537 443.496 182.177 444.453 182.731 446.557 181.774 448.197Z" fill="#7F7F7F" transform="matrix(1.83697e-16 1 1 -1.83697e-16 229.5 657.5)"/><rect x="266" y="771" width="147" height="95.9999" fill="#FFFFFF"/><text font-family="Calibri,Calibri_MSFontService,sans-serif" font-weight="400" font-size="55" transform="matrix(1 0 0 1 285.245 835)">Auth </text><path d="M617.5 697.626 617.5 506.5 841.796 506.5" stroke="#7F7F7F" stroke-width="6.875" stroke-linejoin="round" stroke-miterlimit="10" stroke-dasharray="27.5 20.625" fill="none" fill-rule="evenodd"/><text fill="#FF0000" font-family="Cambria Math,Cambria Math_MSFontService,sans-serif" font-weight="700" font-size="73" transform="matrix(1 0 0 1 583.773 532)">⟳</text><path d="M1041.5 726.062 1424.46 726.063 1424.46 732.938 1041.5 732.937ZM1398.69 710.489 1431.28 729.5 1398.69 748.511C1397.05 749.468 1394.95 748.914 1393.99 747.274 1393.03 745.634 1393.59 743.529 1395.23 742.573L1422.73 726.531 1422.73 732.47 1395.23 716.428C1393.59 715.471 1393.03 713.366 1393.99 711.727 1394.95 710.087 1397.05 709.533 1398.69 710.489Z" fill="#7F7F7F"/><rect x="1176" y="683" width="115" height="92.9998" fill="#FFFFFF"/><text font-family="Calibri,Calibri_MSFontService,sans-serif" font-weight="400" font-size="55" transform="matrix(1 0 0 1 1189.33 747)">GET</text></g></svg>
